<?xml version="1.0" encoding="utf-8"?>
<!-- Generator: Adobe Illustrator 27.5.0, SVG Export Plug-In . SVG Version: 6.00 Build 0)  -->
<svg version="1.1" xmlns="http://www.w3.org/2000/svg" xmlns:xlink="http://www.w3.org/1999/xlink" x="0px" y="0px"
	 viewBox="0 0 500 500" style="enable-background:new 0 0 500 500;" xml:space="preserve">
<g id="BACKGROUND">
	<rect style="fill:#FFFFFF;" width="500" height="500"/>
</g>
<g id="OBJECTS">
	<g>
		<defs>
			<rect id="SVGID_1_" width="500" height="500"/>
		</defs>
		<clipPath id="SVGID_00000032640380911352723430000000047907273707482286_">
			<use xlink:href="#SVGID_1_"  style="overflow:visible;"/>
		</clipPath>
		<g style="clip-path:url(#SVGID_00000032640380911352723430000000047907273707482286_);">
			<g>
				<path style="fill:#222221;" d="M34.253,381.634c0.562,0.054,0.703,0.823,0.141,1.004c-4.048,1.278-5.613,4.014-7.206,7.641
					c-0.1,0.241-0.85,0.723-0.95-0.047c-0.542-4.235-3.666-7.447-8.243-7.34c-0.676,0.02-0.662-1.003,0-1.037
					c3.921-0.201,6.804-3.165,6.931-7.078c0.013-0.575,0.843-0.696,0.997-0.141C27.001,378.543,30.206,381.266,34.253,381.634z
					 M26.693,388.9c0.649-2.91,3.058-5.252,5.747-6.563c-3.017-0.776-5.453-2.763-6.797-5.566c-0.669,2.536-2.442,4.53-4.831,5.5
					C23.83,383.213,26.399,385.715,26.693,388.9z"/>
				<path style="fill:#FFFFFF;" d="M32.44,382.336c-2.69,1.311-5.098,3.653-5.747,6.563c-0.294-3.185-2.864-5.687-5.881-6.63
					c2.389-0.97,4.161-2.964,4.831-5.5C26.988,379.573,29.423,381.56,32.44,382.336z"/>
			</g>
			<g>
				<path style="fill:#222221;" d="M254.849,51.004c0.562,0.054,0.702,0.823,0.14,1.004c-4.048,1.278-5.613,4.014-7.206,7.64
					c-0.1,0.241-0.85,0.723-0.95-0.047c-0.542-4.235-3.666-7.447-8.243-7.34c-0.676,0.02-0.662-1.004,0-1.037
					c3.921-0.201,6.804-3.165,6.931-7.079c0.013-0.575,0.843-0.696,0.997-0.14C247.596,47.913,250.801,50.636,254.849,51.004z
					 M247.289,58.27c0.649-2.91,3.057-5.252,5.747-6.563c-3.017-0.776-5.453-2.763-6.798-5.566c-0.669,2.536-2.442,4.529-4.83,5.5
					C244.425,52.583,246.994,55.085,247.289,58.27z"/>
				<path style="fill:#FFFFFF;" d="M253.036,51.707c-2.69,1.311-5.098,3.653-5.747,6.563c-0.294-3.185-2.864-5.687-5.881-6.63
					c2.388-0.97,4.161-2.964,4.83-5.5C247.583,48.944,250.018,50.931,253.036,51.707z"/>
			</g>
			<g>
				<path style="fill:#222221;" d="M327.804,446.123c0.562,0.053,0.702,0.823,0.141,1.004c-4.048,1.278-5.613,4.014-7.206,7.641
					c-0.1,0.241-0.85,0.723-0.95-0.047c-0.542-4.235-3.666-7.447-8.243-7.339c-0.676,0.02-0.662-1.004,0-1.037
					c3.921-0.201,6.804-3.165,6.931-7.079c0.013-0.575,0.843-0.696,0.997-0.141C320.551,443.032,323.756,445.755,327.804,446.123z
					 M320.244,453.389c0.649-2.91,3.057-5.252,5.747-6.563c-3.017-0.776-5.453-2.763-6.798-5.566
					c-0.669,2.536-2.442,4.529-4.831,5.5C317.38,447.702,319.949,450.204,320.244,453.389z"/>
				<path style="fill:#FFFFFF;" d="M325.991,446.825c-2.69,1.311-5.098,3.653-5.747,6.563c-0.294-3.185-2.864-5.687-5.881-6.63
					c2.389-0.97,4.161-2.964,4.831-5.5C320.538,444.062,322.973,446.049,325.991,446.825z"/>
			</g>
			<g>
				<path style="fill:#222221;" d="M203.354,272.683c0.562,0.053,0.702,0.823,0.14,1.004c-4.048,1.278-5.613,4.014-7.206,7.641
					c-0.1,0.241-0.85,0.723-0.95-0.047c-0.542-4.235-3.666-7.447-8.243-7.34c-0.676,0.02-0.662-1.004,0-1.037
					c3.921-0.201,6.804-3.165,6.931-7.079c0.013-0.575,0.843-0.696,0.997-0.141C196.101,269.592,199.306,272.315,203.354,272.683z
					 M195.793,279.949c0.649-2.91,3.058-5.252,5.747-6.563c-3.017-0.776-5.453-2.763-6.798-5.566c-0.669,2.536-2.442,4.53-4.831,5.5
					C192.93,274.262,195.499,276.764,195.793,279.949z"/>
				<path style="fill:#FFFFFF;" d="M201.541,273.385c-2.69,1.311-5.098,3.653-5.747,6.563c-0.294-3.185-2.863-5.687-5.881-6.63
					c2.389-0.97,4.161-2.964,4.831-5.5C196.088,270.622,198.523,272.609,201.541,273.385z"/>
			</g>
			<g>
				<path style="fill:#222221;" d="M37.284,156.331c0.562,0.053,0.702,0.823,0.14,1.004c-4.048,1.278-5.613,4.014-7.206,7.641
					c-0.1,0.241-0.85,0.723-0.95-0.047c-0.542-4.235-3.666-7.447-8.243-7.34c-0.676,0.02-0.662-1.003,0-1.037
					c3.921-0.201,6.804-3.165,6.931-7.078c0.013-0.575,0.843-0.696,0.997-0.141C30.032,153.24,33.237,155.963,37.284,156.331z
					 M29.724,163.597c0.649-2.91,3.058-5.252,5.747-6.563c-3.017-0.776-5.453-2.763-6.798-5.566c-0.669,2.536-2.442,4.529-4.83,5.5
					C26.86,157.91,29.43,160.412,29.724,163.597z"/>
				<path style="fill:#FFFFFF;" d="M35.471,157.034c-2.69,1.311-5.098,3.653-5.747,6.563c-0.294-3.185-2.864-5.687-5.881-6.63
					c2.389-0.97,4.161-2.964,4.83-5.5C30.018,154.27,32.454,156.258,35.471,157.034z"/>
			</g>
			<g>
				<path style="fill:#222221;" d="M471.879,337.122c0.562,0.054,0.703,0.823,0.141,1.004c-4.048,1.278-5.613,4.014-7.206,7.641
					c-0.1,0.241-0.85,0.723-0.95-0.047c-0.542-4.235-3.666-7.447-8.243-7.339c-0.676,0.02-0.662-1.004,0-1.037
					c3.921-0.201,6.804-3.165,6.931-7.078c0.013-0.575,0.843-0.696,0.997-0.141C464.627,334.031,467.832,336.754,471.879,337.122z
					 M464.319,344.388c0.649-2.91,3.058-5.252,5.747-6.563c-3.017-0.776-5.453-2.763-6.798-5.566c-0.669,2.536-2.442,4.53-4.831,5.5
					C461.456,338.701,464.025,341.203,464.319,344.388z"/>
				<path style="fill:#FFFFFF;" d="M470.066,337.824c-2.69,1.311-5.098,3.653-5.747,6.563c-0.294-3.185-2.864-5.687-5.881-6.63
					c2.389-0.97,4.161-2.964,4.831-5.5C464.613,335.061,467.049,337.048,470.066,337.824z"/>
			</g>
			<g>
				<path style="fill:#222221;" d="M379.625,226.219c0.562,0.053,0.703,0.823,0.141,1.004c-4.048,1.278-5.613,4.014-7.206,7.641
					c-0.1,0.241-0.85,0.723-0.95-0.047c-0.542-4.235-3.666-7.447-8.243-7.34c-0.676,0.02-0.662-1.004,0-1.037
					c3.921-0.201,6.804-3.165,6.931-7.079c0.013-0.575,0.843-0.696,0.997-0.14C372.372,223.128,375.577,225.852,379.625,226.219z
					 M372.064,233.485c0.649-2.91,3.058-5.252,5.747-6.563c-3.017-0.776-5.453-2.763-6.798-5.566
					c-0.669,2.536-2.442,4.529-4.831,5.5C369.201,227.798,371.77,230.301,372.064,233.485z"/>
				<path style="fill:#FFFFFF;" d="M377.811,226.922c-2.69,1.311-5.098,3.653-5.747,6.563c-0.294-3.185-2.863-5.687-5.881-6.63
					c2.388-0.97,4.161-2.964,4.831-5.5C372.359,224.159,374.794,226.146,377.811,226.922z"/>
			</g>
			<g>
				<path style="fill:#222221;" d="M97.83,18.143c0.562,0.054,0.702,0.823,0.141,1.004c-4.048,1.278-5.613,4.014-7.206,7.641
					c-0.1,0.241-0.85,0.723-0.95-0.047c-0.542-4.235-3.666-7.446-8.243-7.339c-0.676,0.02-0.662-1.004,0-1.037
					c3.921-0.201,6.804-3.165,6.931-7.079c0.013-0.575,0.843-0.696,0.997-0.141C90.577,15.052,93.782,17.775,97.83,18.143z
					 M90.269,25.409c0.649-2.91,3.058-5.252,5.747-6.563c-3.017-0.776-5.453-2.763-6.798-5.566c-0.669,2.536-2.442,4.53-4.831,5.5
					C87.406,19.722,89.975,22.224,90.269,25.409z"/>
				<path style="fill:#FFFFFF;" d="M96.017,18.845c-2.69,1.311-5.098,3.653-5.747,6.563c-0.294-3.185-2.864-5.687-5.881-6.63
					c2.389-0.97,4.162-2.964,4.831-5.5C90.564,16.082,92.999,18.069,96.017,18.845z"/>
			</g>
			<g>
				<path style="fill:#222221;" d="M158.701,332.937c0.562,0.054,0.703,0.823,0.141,1.004c-4.048,1.278-5.613,4.014-7.206,7.641
					c-0.1,0.241-0.85,0.723-0.95-0.047c-0.542-4.235-3.666-7.447-8.243-7.34c-0.676,0.02-0.662-1.003,0-1.037
					c3.921-0.201,6.804-3.165,6.931-7.078c0.013-0.575,0.843-0.696,0.997-0.141C151.449,329.846,154.653,332.569,158.701,332.937z
					 M151.141,340.203c0.649-2.91,3.058-5.252,5.747-6.563c-3.018-0.776-5.453-2.763-6.798-5.566c-0.669,2.536-2.442,4.53-4.831,5.5
					C148.277,334.516,150.847,337.019,151.141,340.203z"/>
				<path style="fill:#FFFFFF;" d="M156.888,333.64c-2.69,1.311-5.098,3.653-5.747,6.563c-0.294-3.185-2.864-5.687-5.881-6.63
					c2.389-0.97,4.161-2.964,4.831-5.5C151.435,330.877,153.871,332.864,156.888,333.64z"/>
			</g>
			<g>
				<path style="fill:#222221;" d="M495.981,71.804c0.562,0.054,0.703,0.823,0.141,1.004c-4.048,1.278-5.613,4.014-7.206,7.641
					c-0.1,0.241-0.85,0.723-0.95-0.047c-0.542-4.235-3.666-7.447-8.243-7.34c-0.676,0.02-0.662-1.004,0-1.037
					c3.921-0.201,6.804-3.165,6.931-7.079c0.013-0.575,0.843-0.696,0.997-0.141C488.728,68.713,491.933,71.436,495.981,71.804z
					 M488.421,79.07c0.649-2.91,3.058-5.252,5.747-6.563c-3.017-0.776-5.453-2.763-6.798-5.566c-0.669,2.536-2.442,4.53-4.831,5.5
					C485.557,73.383,488.126,75.885,488.421,79.07z"/>
				<path style="fill:#FFFFFF;" d="M494.168,72.507c-2.69,1.311-5.098,3.653-5.747,6.563c-0.294-3.185-2.864-5.687-5.881-6.63
					c2.388-0.97,4.161-2.964,4.831-5.5C488.715,69.744,491.15,71.731,494.168,72.507z"/>
			</g>
			<g>
				<path style="fill:#222221;" d="M244.301,447.618c3.766,3.214,4.424,8.988,2.595,13.38
					c-4.491,10.771-18.629,13.519-28.895,14.411c-15.282,1.324-30.838,0.845-46.06-0.858c-6.52-0.732-13.473-1.251-19.654-3.586
					c-4.172-1.577-9.288-4.637-9.68-9.581c-0.845-10.492,13.14-16.314,20.319-9.261c-9.887-16.759-1.244-39.194,18.15-43.479
					c18.156-4.012,35.029,11.078,33.386,29.334c3.666-3.732,8.969-7.738,14.111-4.451c5.07,3.253,3.04,9.594,0.752,14.111
					C234.095,445.462,239.95,443.892,244.301,447.618z M238.1,468.749c5.342-3.2,9.993-8.948,8.243-15.535
					c-2.368-8.915-11.843-6.893-18.09-3.752c-0.519,0.259-1.111-0.273-0.812-0.812c2.329-4.132,6.101-12.608-0.905-14.803
					c-5.11-1.603-9.354,2.821-12.448,6.207c-0.426,0.466-1.045-0.047-0.965-0.565c1.377-8.855-2.069-17.977-8.709-23.958
					c-6.507-5.861-15.535-7.664-23.945-5.542c-18.329,4.631-25.921,26.074-16.427,41.935c0.339,0.565-1.184,1.025-1.417,0.818
					c-6.161-5.482-15.974-2.435-18.469,5.356c-2.681,8.363,7.904,12.082,14.151,13.36c13.366,2.728,27.451,3.433,41.063,3.453
					C211.946,474.923,226.943,475.448,238.1,468.749z"/>
				<path style="fill:#FFFFFF;" d="M246.343,453.213c1.75,6.587-2.901,12.335-8.243,15.535c-11.157,6.7-26.154,6.174-38.728,6.161
					c-13.612-0.02-27.697-0.725-41.063-3.453c-6.247-1.277-16.833-4.997-14.151-13.36c2.495-7.791,12.308-10.838,18.469-5.356
					c0.233,0.206,1.756-0.253,1.417-0.818c-9.494-15.861-1.903-37.304,16.427-41.935c8.41-2.122,17.438-0.319,23.945,5.542
					c6.64,5.981,10.086,15.103,8.709,23.958c-0.08,0.519,0.539,1.031,0.965,0.565c3.094-3.386,7.338-7.811,12.448-6.207
					c7.006,2.196,3.233,10.672,0.905,14.803c-0.299,0.539,0.293,1.071,0.812,0.812C234.501,446.321,243.975,444.298,246.343,453.213
					z"/>
			</g>
			<g>
				<path style="fill:#222221;" d="M558.397,21.101c3.766,3.213,4.424,8.988,2.595,13.379
					c-4.491,10.771-18.629,13.519-28.895,14.411c-15.282,1.324-30.838,0.845-46.06-0.858c-6.52-0.732-13.473-1.251-19.654-3.586
					c-4.172-1.577-9.288-4.637-9.68-9.581c-0.845-10.492,13.14-16.314,20.319-9.261c-9.887-16.759-1.244-39.194,18.15-43.479
					c18.157-4.012,35.029,11.078,33.386,29.334c3.666-3.732,8.969-7.738,14.111-4.451c5.07,3.253,3.04,9.594,0.752,14.111
					C548.191,18.945,554.046,17.375,558.397,21.101z M552.196,42.231c5.343-3.2,9.993-8.949,8.243-15.535
					c-2.369-8.915-11.843-6.893-18.09-3.752c-0.519,0.259-1.111-0.273-0.812-0.812c2.329-4.132,6.101-12.608-0.905-14.803
					c-5.11-1.603-9.354,2.821-12.448,6.207c-0.426,0.466-1.044-0.047-0.965-0.566c1.377-8.855-2.069-17.977-8.709-23.958
					c-6.507-5.861-15.535-7.664-23.945-5.542c-18.329,4.631-25.921,26.074-16.427,41.935c0.339,0.566-1.184,1.025-1.417,0.818
					c-6.161-5.482-15.974-2.435-18.469,5.356c-2.681,8.363,7.904,12.082,14.151,13.36c13.366,2.728,27.451,3.433,41.064,3.453
					C526.043,48.405,541.039,48.931,552.196,42.231z"/>
				<path style="fill:#FFFFFF;" d="M560.44,26.696c1.75,6.587-2.901,12.335-8.243,15.535c-11.157,6.7-26.154,6.174-38.728,6.161
					c-13.612-0.02-27.697-0.725-41.064-3.453c-6.247-1.277-16.832-4.996-14.151-13.36c2.495-7.791,12.308-10.838,18.469-5.356
					c0.233,0.206,1.757-0.253,1.417-0.818c-9.494-15.861-1.903-37.304,16.427-41.935c8.41-2.122,17.438-0.319,23.945,5.542
					c6.64,5.981,10.086,15.103,8.709,23.958c-0.08,0.519,0.539,1.031,0.965,0.566c3.094-3.387,7.339-7.811,12.448-6.207
					c7.006,2.196,3.234,10.672,0.905,14.803c-0.299,0.539,0.293,1.071,0.812,0.812C548.597,19.803,558.071,17.781,560.44,26.696z"/>
			</g>
			<g>
				<path style="fill:#222221;" d="M383.616,58.598c3.766,3.213,4.424,8.989,2.595,13.38c-4.491,10.771-18.629,13.519-28.895,14.411
					c-15.282,1.324-30.837,0.845-46.06-0.858c-6.52-0.732-13.473-1.251-19.654-3.586c-4.172-1.577-9.288-4.637-9.68-9.581
					c-0.845-10.492,13.14-16.314,20.319-9.261c-9.887-16.759-1.244-39.194,18.15-43.479c18.156-4.012,35.029,11.077,33.386,29.334
					c3.666-3.733,8.969-7.738,14.111-4.451c5.07,3.253,3.04,9.594,0.752,14.111C373.41,56.442,379.265,54.872,383.616,58.598z
					 M377.416,79.728c5.342-3.2,9.993-8.949,8.243-15.535c-2.368-8.915-11.843-6.893-18.09-3.752
					c-0.519,0.259-1.111-0.273-0.812-0.812c2.329-4.132,6.101-12.608-0.905-14.803c-5.11-1.603-9.354,2.821-12.448,6.208
					c-0.426,0.466-1.044-0.047-0.965-0.566c1.377-8.855-2.069-17.977-8.709-23.958c-6.507-5.861-15.535-7.664-23.945-5.542
					c-18.33,4.631-25.921,26.074-16.427,41.935c0.339,0.566-1.184,1.025-1.417,0.818c-6.161-5.482-15.974-2.435-18.469,5.356
					c-2.681,8.363,7.904,12.082,14.151,13.36c13.366,2.728,27.451,3.433,41.063,3.453C351.262,85.902,366.258,86.428,377.416,79.728
					z"/>
				<path style="fill:#FFFFFF;" d="M385.659,64.193c1.75,6.587-2.901,12.335-8.243,15.535c-11.157,6.7-26.154,6.174-38.728,6.161
					c-13.612-0.02-27.697-0.725-41.063-3.453c-6.247-1.277-16.833-4.997-14.151-13.36c2.495-7.791,12.308-10.838,18.469-5.356
					c0.233,0.206,1.757-0.253,1.417-0.818c-9.494-15.861-1.903-37.304,16.427-41.935c8.41-2.122,17.438-0.319,23.945,5.542
					c6.64,5.981,10.086,15.103,8.709,23.958c-0.08,0.519,0.539,1.031,0.965,0.566c3.094-3.386,7.339-7.811,12.448-6.208
					c7.006,2.196,3.233,10.672,0.905,14.803c-0.299,0.539,0.293,1.071,0.812,0.812C373.816,57.3,383.29,55.278,385.659,64.193z"/>
			</g>
			<g>
				<path style="fill:#222221;" d="M129.171,259.62c1.371,3.673-2.967,8.29-5.476,10.326c-8.822,7.185-21.982,6.5-32.694,6.84
					c-13.14,0.419-26.393,0.346-39.507-0.739c-5.17-0.432-10.412-1.178-15.183-3.307c-3.526-1.577-7.857-4.158-8.237-8.43
					c-0.293-3.333,1.736-6.713,4.77-8.104c3.174-1.45,6.58-0.765,9.381,0.998c-2.502-5.389-0.885-12.428,4.384-15.622
					c4.624-2.801,10.572-1.677,14.391,1.81c-3.12-9.082-3.779-19.294,1.171-27.87c4.777-8.27,13.473-12.827,22.987-11.257
					c9.534,1.577,20.665,7.658,25.209,16.493c3.546,6.899,3.613,15.203,0.366,22.142c4.158-3.599,10.04-6.7,14.045-1.53
					c3.752,4.857-0.286,12.515-4.185,17.252C123.782,257.292,127.994,256.473,129.171,259.62z M127.987,262.095
					c0.625-6.227-7.891-2.202-9.827-0.878c-0.546,0.373-1.171-0.466-0.699-0.911c3.839-3.579,9.142-11.051,7.199-16.766
					c-1.331-3.919-6.167-4.251-9.368-2.741c-2.721,1.277-4.77,3.646-6.726,5.848c-0.433,0.486-1.277-0.16-0.905-0.692
					c5.11-7.292,5.735-17.165,1.477-25.029c-4.345-8.037-14.471-13.539-23.186-15.309c-10.093-2.056-19.268,3.054-23.672,12.215
					c-4.365,9.075-2.655,19.607,1.098,28.556c0.259,0.619-0.745,0.991-1.058,0.446c-2.934-5.07-9.933-7.398-15.129-4.265
					c-5.209,3.14-6.693,10.592-3.313,15.382c0.705,1.005-0.08,1.324-0.426,1.051c-4.85-3.832-14.597-3.18-14.291,4.884
					c0.22,5.981,9.008,8.736,13.766,9.813c10.459,2.355,21.889,2.003,32.547,2.083c11.257,0.086,23.033,0.346,34.177-1.417
					c5.196-0.818,10.439-2.528,14.324-6.221C125.512,266.679,127.761,264.318,127.987,262.095z"/>
				<path style="fill:#FFFFFF;" d="M118.16,261.217c1.936-1.324,10.452-5.349,9.827,0.878c-0.226,2.222-2.475,4.584-4.012,6.048
					c-3.886,3.693-9.128,5.402-14.324,6.221c-11.144,1.763-22.92,1.504-34.177,1.417c-10.658-0.08-22.089,0.273-32.547-2.083
					c-4.757-1.078-13.546-3.832-13.766-9.813c-0.306-8.064,9.441-8.716,14.291-4.884c0.346,0.273,1.131-0.046,0.426-1.051
					c-3.38-4.79-1.896-12.242,3.313-15.382c5.196-3.134,12.195-0.805,15.129,4.265c0.313,0.546,1.317,0.173,1.058-0.446
					c-3.752-8.949-5.462-19.481-1.098-28.556c4.404-9.161,13.579-14.271,23.672-12.215c8.716,1.77,18.842,7.272,23.186,15.309
					c4.258,7.864,3.633,17.737-1.477,25.029c-0.372,0.532,0.472,1.178,0.905,0.692c1.956-2.202,4.005-4.571,6.726-5.848
					c3.2-1.51,8.037-1.178,9.368,2.741c1.943,5.715-3.36,13.187-7.199,16.766C116.989,260.751,117.615,261.59,118.16,261.217z"/>
			</g>
			<g>
				<path style="fill:#222221;" d="M550.431,487.793c1.371,3.672-2.967,8.29-5.475,10.326c-8.822,7.186-21.982,6.5-32.694,6.84
					c-13.14,0.419-26.393,0.346-39.507-0.738c-5.17-0.432-10.412-1.178-15.183-3.307c-3.526-1.577-7.857-4.158-8.237-8.43
					c-0.293-3.333,1.737-6.713,4.77-8.104c3.174-1.45,6.58-0.765,9.381,0.998c-2.502-5.389-0.885-12.428,4.384-15.622
					c4.624-2.801,10.572-1.677,14.391,1.81c-3.12-9.082-3.779-19.294,1.171-27.87c4.777-8.27,13.473-12.827,22.987-11.257
					c9.534,1.577,20.665,7.658,25.209,16.493c3.546,6.899,3.613,15.203,0.366,22.142c4.158-3.599,10.04-6.7,14.045-1.53
					c3.752,4.857-0.286,12.515-4.185,17.252C545.042,485.464,549.253,484.646,550.431,487.793z M549.246,490.268
					c0.625-6.227-7.891-2.202-9.827-0.878c-0.546,0.372-1.171-0.466-0.699-0.911c3.839-3.579,9.141-11.051,7.199-16.766
					c-1.331-3.919-6.167-4.251-9.368-2.741c-2.721,1.277-4.77,3.646-6.726,5.848c-0.432,0.486-1.277-0.16-0.905-0.692
					c5.11-7.292,5.735-17.165,1.477-25.029c-4.345-8.037-14.471-13.539-23.186-15.309c-10.093-2.056-19.268,3.054-23.672,12.215
					c-4.365,9.075-2.655,19.607,1.098,28.555c0.259,0.619-0.745,0.991-1.058,0.446c-2.934-5.07-9.933-7.398-15.129-4.265
					c-5.209,3.14-6.693,10.592-3.313,15.382c0.705,1.005-0.08,1.324-0.426,1.051c-4.85-3.832-14.597-3.18-14.291,4.883
					c0.22,5.981,9.008,8.736,13.765,9.813c10.459,2.355,21.889,2.003,32.547,2.082c11.257,0.087,23.033,0.346,34.177-1.417
					c5.196-0.818,10.439-2.528,14.324-6.221C546.771,494.852,549.02,492.49,549.246,490.268z"/>
				<path style="fill:#FFFFFF;" d="M539.42,489.39c1.936-1.324,10.452-5.349,9.827,0.878c-0.226,2.222-2.475,4.584-4.012,6.048
					c-3.885,3.692-9.128,5.402-14.324,6.221c-11.144,1.763-22.92,1.504-34.177,1.417c-10.658-0.08-22.089,0.273-32.547-2.082
					c-4.757-1.078-13.546-3.832-13.765-9.813c-0.306-8.064,9.441-8.716,14.291-4.883c0.346,0.273,1.131-0.047,0.426-1.051
					c-3.38-4.79-1.896-12.242,3.313-15.382c5.196-3.134,12.195-0.805,15.129,4.265c0.313,0.546,1.317,0.173,1.058-0.446
					c-3.752-8.948-5.462-19.48-1.098-28.555c4.404-9.161,13.579-14.271,23.672-12.215c8.716,1.77,18.842,7.272,23.186,15.309
					c4.258,7.864,3.633,17.737-1.477,25.029c-0.373,0.532,0.472,1.178,0.905,0.692c1.956-2.202,4.005-4.571,6.726-5.848
					c3.2-1.51,8.037-1.178,9.368,2.741c1.943,5.715-3.36,13.187-7.199,16.766C538.249,488.924,538.874,489.762,539.42,489.39z"/>
			</g>
			<g>
				<path style="fill:#222221;" d="M-46.901,484.353c-3.899-4.737-7.937-12.395-4.185-17.252c4.005-5.169,9.887-2.069,14.045,1.53
					c-3.247-6.939-3.18-15.242,0.366-22.142c4.544-8.835,15.675-14.916,25.209-16.493c9.514-1.57,18.21,2.987,22.987,11.257
					c4.95,8.576,4.291,18.789,1.171,27.87c3.819-3.486,9.767-4.611,14.391-1.81c5.269,3.194,6.886,10.233,4.385,15.622
					c2.801-1.763,6.207-2.448,9.381-0.998c3.034,1.391,5.063,4.77,4.77,8.104c-0.379,4.271-4.71,6.853-8.237,8.43
					c-4.77,2.129-10.013,2.874-15.183,3.307c-13.113,1.085-26.367,1.158-39.507,0.739c-10.712-0.339-23.872,0.346-32.694-6.84
					c-2.508-2.036-6.846-6.653-5.475-10.326C-54.299,482.204-50.088,483.022-46.901,484.353z M-50.281,493.874
					c3.886,3.693,9.128,5.402,14.324,6.221c11.144,1.763,22.92,1.504,34.177,1.417c10.658-0.08,22.089,0.273,32.547-2.083
					c4.757-1.078,13.546-3.832,13.765-9.813c0.306-8.064-9.441-8.716-14.291-4.884c-0.346,0.273-1.131-0.046-0.426-1.051
					c3.38-4.79,1.896-12.242-3.313-15.382c-5.196-3.134-12.195-0.805-15.129,4.265c-0.313,0.546-1.317,0.173-1.058-0.446
					c3.752-8.949,5.462-19.48,1.098-28.556c-4.404-9.161-13.579-14.271-23.672-12.215c-8.716,1.77-18.842,7.272-23.186,15.309
					c-4.258,7.864-3.633,17.737,1.477,25.029c0.373,0.532-0.472,1.178-0.905,0.692c-1.956-2.202-4.005-4.571-6.726-5.848
					c-3.2-1.51-8.037-1.178-9.368,2.741c-1.943,5.715,3.36,13.187,7.199,16.766c0.472,0.446-0.153,1.284-0.699,0.911
					c-1.936-1.324-10.452-5.349-9.827,0.878C-54.066,490.048-51.817,492.41-50.281,493.874z"/>
				<path style="fill:#FFFFFF;" d="M-44.466,486.948c-1.936-1.324-10.452-5.349-9.827,0.878c0.226,2.222,2.475,4.584,4.012,6.048
					c3.886,3.693,9.128,5.402,14.324,6.221c11.144,1.763,22.92,1.504,34.177,1.417c10.658-0.08,22.089,0.273,32.547-2.083
					c4.757-1.078,13.546-3.832,13.765-9.813c0.306-8.064-9.441-8.716-14.291-4.884c-0.346,0.273-1.131-0.046-0.426-1.051
					c3.38-4.79,1.896-12.242-3.313-15.382c-5.196-3.134-12.195-0.805-15.129,4.265c-0.313,0.546-1.317,0.173-1.058-0.446
					c3.752-8.949,5.462-19.48,1.098-28.556c-4.404-9.161-13.579-14.271-23.672-12.215c-8.716,1.77-18.842,7.272-23.186,15.309
					c-4.258,7.864-3.633,17.737,1.477,25.029c0.373,0.532-0.472,1.178-0.905,0.692c-1.956-2.202-4.005-4.571-6.726-5.848
					c-3.2-1.51-8.037-1.178-9.368,2.741c-1.943,5.715,3.36,13.187,7.199,16.766C-43.295,486.482-43.92,487.32-44.466,486.948z"/>
			</g>
			<g>
				<path style="fill:#FFFFFF;" d="M352.798,281.085c0.073,3.486-2.994,6.088-5.855,7.445c-5.695,2.701-12.688,3.766-18.888,4.305
					c-5.702,0.499-12.235,0.772-17.817-0.732c-3.24-0.872-6.227-2.868-6.374-6.527c-0.146-3.912,4.358-9.148,7.997-5.728
					c0.951,0.898,1.67-0.253,1.291-0.818c-4.83-7.332-1.89-17.411,6.806-19.96c8.257-2.422,16.134,3.932,16.42,12.315
					c0.013,0.406,0.479,0.745,0.852,0.492c0.758-0.519,3.193-5.536,6.174-2.954c1.537,1.324,0.898,7.125,1.351,6.973
					C348.294,274.698,352.718,277.06,352.798,281.085z"/>
				<path style="fill:#222221;" d="M345.353,274.512c6.261-1.351,10.858,5.788,7.066,11.177c-2.342,3.34-6.467,4.684-10.213,5.742
					c-5.216,1.47-10.599,2.355-16.001,2.675c-5.037,0.293-10.379,0.313-15.329-0.738c-3.094-0.659-6.327-2.122-7.565-5.256
					c-1.943-4.897,3.48-13.36,8.569-9.009c-4.963-7.837-1.324-18.489,7.777-21.13c8.609-2.502,16.799,3.739,17.764,12.282
					c1.663-1.657,2.714-4.231,5.569-2.974C345.926,268.577,345.832,271.804,345.353,274.512z M346.943,288.53
					c2.861-1.357,5.928-3.959,5.855-7.445c-0.08-4.025-4.504-6.387-8.044-5.189c-0.452,0.153,0.186-5.648-1.351-6.973
					c-2.981-2.582-5.416,2.435-6.174,2.954c-0.373,0.253-0.838-0.087-0.852-0.492c-0.286-8.383-8.164-14.737-16.42-12.315
					c-8.696,2.548-11.636,12.628-6.806,19.96c0.379,0.565-0.339,1.716-1.291,0.818c-3.639-3.42-8.143,1.816-7.997,5.728
					c0.146,3.659,3.134,5.655,6.374,6.527c5.582,1.504,12.116,1.231,17.817,0.732C334.256,292.296,341.248,291.231,346.943,288.53z"
					/>
			</g>
			<g>
				<path style="fill:#FFFFFF;" d="M30.219,38.099c0.073,3.486-2.994,6.088-5.855,7.445c-5.695,2.701-12.688,3.766-18.888,4.305
					c-5.702,0.499-12.235,0.772-17.817-0.732c-3.24-0.872-6.227-2.868-6.374-6.527c-0.146-3.912,4.358-9.148,7.997-5.728
					c0.951,0.898,1.67-0.253,1.291-0.818c-4.83-7.332-1.889-17.411,6.806-19.959c8.257-2.422,16.134,3.932,16.42,12.315
					c0.013,0.406,0.479,0.745,0.852,0.492c0.758-0.519,3.193-5.536,6.174-2.954c1.537,1.324,0.898,7.126,1.351,6.973
					C25.715,31.712,30.139,34.074,30.219,38.099z"/>
				<path style="fill:#222221;" d="M22.774,31.526c6.261-1.351,10.858,5.788,7.066,11.177c-2.342,3.34-6.467,4.684-10.213,5.742
					c-5.216,1.47-10.599,2.355-16.001,2.675c-5.036,0.293-10.379,0.313-15.329-0.739c-3.094-0.659-6.327-2.122-7.565-5.256
					c-1.943-4.897,3.48-13.36,8.569-9.008c-4.963-7.837-1.324-18.489,7.778-21.13c8.609-2.502,16.799,3.739,17.764,12.282
					c1.663-1.657,2.715-4.231,5.569-2.974C23.346,25.591,23.253,28.818,22.774,31.526z M24.364,45.544
					c2.861-1.357,5.928-3.959,5.855-7.445c-0.08-4.025-4.504-6.387-8.044-5.189c-0.452,0.153,0.186-5.649-1.351-6.973
					c-2.981-2.581-5.416,2.435-6.174,2.954c-0.373,0.253-0.838-0.087-0.852-0.492c-0.286-8.383-8.164-14.737-16.42-12.315
					c-8.696,2.548-11.636,12.628-6.806,19.959c0.379,0.566-0.339,1.717-1.291,0.818c-3.639-3.42-8.144,1.816-7.997,5.728
					c0.146,3.659,3.134,5.655,6.374,6.527c5.582,1.504,12.115,1.231,17.817,0.732C11.677,49.31,18.669,48.245,24.364,45.544z"/>
			</g>
			<g>
				<path style="fill:#FFFFFF;" d="M151.568,59.44c-0.073,3.486,2.994,6.088,5.855,7.445c5.695,2.701,12.688,3.766,18.888,4.305
					c5.702,0.499,12.235,0.772,17.817-0.732c3.24-0.872,6.227-2.868,6.374-6.527c0.146-3.912-4.358-9.148-7.997-5.728
					c-0.951,0.898-1.67-0.253-1.291-0.818c4.83-7.332,1.889-17.411-6.806-19.96c-8.257-2.422-16.134,3.932-16.42,12.315
					c-0.013,0.406-0.479,0.745-0.852,0.492c-0.759-0.519-3.194-5.535-6.174-2.954c-1.537,1.324-0.898,7.125-1.351,6.972
					C156.072,53.053,151.647,55.415,151.568,59.44z"/>
				<path style="fill:#222221;" d="M161.374,45.635c2.854-1.257,3.906,1.317,5.569,2.974c0.965-8.543,9.155-14.783,17.764-12.282
					c9.102,2.641,12.741,13.293,7.777,21.131c5.09-4.351,10.512,4.112,8.569,9.008c-1.238,3.134-4.471,4.597-7.565,5.256
					c-4.95,1.051-10.292,1.031-15.329,0.739c-5.402-0.319-10.785-1.204-16.001-2.675c-3.746-1.058-7.871-2.402-10.213-5.742
					c-3.792-5.389,0.805-12.528,7.066-11.177C158.533,50.159,158.44,46.932,161.374,45.635z M176.311,71.19
					c5.702,0.499,12.235,0.772,17.817-0.732c3.24-0.872,6.227-2.868,6.374-6.527c0.146-3.912-4.358-9.148-7.997-5.728
					c-0.951,0.898-1.67-0.253-1.291-0.818c4.83-7.332,1.889-17.411-6.806-19.96c-8.257-2.422-16.134,3.932-16.42,12.315
					c-0.013,0.406-0.479,0.745-0.852,0.492c-0.759-0.519-3.194-5.535-6.174-2.954c-1.537,1.324-0.898,7.125-1.351,6.972
					c-3.539-1.198-7.964,1.164-8.044,5.19c-0.073,3.486,2.994,6.088,5.855,7.445C163.118,69.586,170.11,70.651,176.311,71.19z"/>
			</g>
			<g>
				<path style="fill:#222221;" d="M565.465,274.2c0.911,8.729-7.079,13.153-14.384,14.91c-9.78,2.362-19.973,3.546-29.953,4.737
					c-10.905,1.304-21.862,2.182-32.833,2.695c-22.102,1.038-44.33,0.652-66.392-1.084c-8.383-0.659-17.425-1.956-23.699-8.09
					c-5.549-5.409-6.793-12.535-3.672-19.567c2.828-6.374,8.25-13.027,15.635-13.892c4.517-0.526,9.408,1.43,11.829,5.183
					c-1.497-5.15-1.763-10.818,2.901-14.524c4.251-3.386,10-2.741,13.732,0.812c-0.945-8.263,1.949-16.387,7.265-22.794
					c11.503-13.878,32.707-16.679,49.36-12.435c8.35,2.129,15.495,6.986,19.121,14.976c2.555,5.629,3.287,11.863,2.848,17.99
					c2.502-6.766,7.771-12.814,15.801-10.552c10.672,3.001,12.694,14.697,12.302,24.324c1.863-1.497,4.757-1.583,6.56,0.266
					c1.903,1.969,1.517,4.79,0.013,6.773C558.373,262.97,564.74,267.274,565.465,274.2z M563.083,280.481
					c4.81-8.802-4.231-17.964-13.16-14.85c-0.645,0.226-1.018-0.758-0.452-1.084c2.229-1.297,3.24-4.045,1.617-6.161
					c-1.59-2.069-4.684-1.783-5.941,0.519c-0.266,0.499-1.144,0.293-1.098-0.293c0.645-9.082-0.299-20.532-10.066-24.444
					c-9.667-3.872-16.294,5.635-16.892,13.825c-0.093,1.277-1.757,0.779-1.637,0.073c1.643-9.78,0.705-20.964-6.168-28.682
					c-7.205-8.09-19.188-9.84-29.467-9.74c-10.752,0.106-22.022,3.034-30.072,10.505c-7.292,6.78-11.583,16.779-9.807,26.746
					c0.113,0.632-0.619,0.905-0.991,0.419c-3.573-4.664-10.372-5.389-14.497-1.005c-4.152,4.411-2.561,10.778-0.845,15.868
					c0.392,1.171-0.712,1.078-0.818,0.679c-2.601-9.774-14.617-9.315-20.858-3.646c-6.354,5.782-10.692,15.781-5.808,23.705
					c4.391,7.132,12.661,9.793,20.532,10.825c8.29,1.085,16.753,1.337,25.103,1.677c17.225,0.712,34.49,0.659,51.708-0.333
					c17.139-0.985,34.237-2.894,51.15-5.901C551.061,288.032,559.597,286.848,563.083,280.481z"/>
				<path style="fill:#FFFFFF;" d="M549.923,265.631c8.929-3.114,17.97,6.048,13.16,14.85c-3.486,6.367-12.022,7.551-18.469,8.702
					c-16.912,3.007-34.011,4.917-51.15,5.901c-17.218,0.991-34.483,1.044-51.708,0.333c-8.35-0.339-16.813-0.592-25.103-1.677
					c-7.871-1.031-16.141-3.692-20.532-10.825c-4.883-7.924-0.546-17.924,5.808-23.705c6.241-5.668,18.256-6.128,20.858,3.646
					c0.106,0.399,1.211,0.492,0.818-0.679c-1.716-5.09-3.307-11.457,0.845-15.868c4.125-4.385,10.924-3.659,14.497,1.005
					c0.373,0.486,1.104,0.213,0.991-0.419c-1.776-9.967,2.515-19.966,9.807-26.746c8.05-7.472,19.321-10.399,30.072-10.505
					c10.279-0.1,22.262,1.65,29.467,9.74c6.873,7.718,7.811,18.902,6.168,28.682c-0.12,0.705,1.544,1.204,1.637-0.073
					c0.599-8.19,7.225-17.697,16.892-13.825c9.767,3.912,10.712,15.362,10.066,24.444c-0.047,0.586,0.832,0.792,1.098,0.293
					c1.257-2.302,4.351-2.588,5.941-0.519c1.623,2.116,0.612,4.863-1.617,6.161C548.905,264.872,549.278,265.857,549.923,265.631z"
					/>
			</g>
			<g>
				<g>
					<path style="fill:#222221;" d="M115.576,69.451c1.821,2.981-0.152,8.158-1.001,11.117c-1.401,4.908-3.515,9.619-6.295,13.897
						c3.849,3.213,7.353,6.812,10.381,10.813c1.443,1.909,4.838,6.266,3.069,8.929c-1.68,2.524-7.92,2.262-10.596,2.378
						c-5.156,0.227-10.349-0.208-15.452-0.891c-3.203,4.737-6.898,9.25-10.879,13.348c-2.456,2.515-5.62,5.297-9.418,4.351
						c-3.902-0.982-4.176-5.065-4.516-8.46c-0.502-5.02-0.272-10.211,0.996-15.107c-4.834,0.621-10.002-0.217-14.727-1.232
						c-3.144-0.68-8.65-1.388-9.739-5.136c-1.064-3.672,4.213-7.283,6.537-9.3c4.071-3.53,13.655-9.059,13.78-9.021
						c-1.134-5.311-1.411-10.784-0.989-16.2c0.209-2.687,0.055-7.826,3.342-8.865c3.32-1.047,7.325,3.148,9.573,4.985
						c4.161,3.398,7.938,7.19,11.39,11.301c0.098,0.12,0.127,0.243,0.13,0.366c4.933-3.083,10.242-5.552,15.753-7.412
						C109.452,68.455,113.708,66.414,115.576,69.451z M115.034,72.993c-0.136-1.377-0.268-4.454-3.845-3.817
						c-0.851,0.159-16.253,6.623-19.679,8.641c-0.426,0.247-1.142-0.503-1.287-0.673C85.537,71.56,73.856,59.146,69.9,61.292
						c-3.098,1.281-2.307,9.517-2.345,11.361c-0.09,4.274,0.355,8.5,0.987,12.728c0.039,0.271-7.869,4.92-11.132,7.466
						c-2.407,1.873-5.95,4.282-7.569,6.915c-4.058,6.567,7.501,7.755,10.984,8.311c3.82,0.618,7.658,0.575,11.484,1.021
						c0.253,0.027,0.377,0.648,0.362,0.754c-0.808,5.236-3.709,22.587,4.532,22.548c4.172-0.022,7.64-4.932,10.134-7.799
						c2.666-3.059,5.083-6.296,7.476-9.576c0.189-0.265,0.494-0.278,0.727-0.163c3.807,0.252,7.604,0.636,11.419,0.694
						c3.568,0.057,9.295,0.519,12.609-0.971c7.041-3.171-9.479-17.127-12.538-19.683c-0.445-0.364,4.166-7.758,5.481-11.446
						C113.54,80.533,115.345,76.129,115.034,72.993z"/>
					<path style="fill:#FFFFFF;" d="M111.189,69.177c3.577-0.637,3.709,2.439,3.845,3.817c0.311,3.136-1.494,7.539-2.523,10.46
						c-1.314,3.688-5.925,11.082-5.481,11.446c3.059,2.556,19.579,16.512,12.538,19.683c-3.314,1.491-9.041,1.028-12.609,0.971
						c-3.814-0.058-7.612-0.443-11.419-0.694c-0.233-0.114-0.538-0.102-0.727,0.163c-2.393,3.28-4.81,6.517-7.476,9.576
						c-2.494,2.866-5.962,7.777-10.134,7.799c-8.241,0.039-5.34-17.312-4.532-22.548c0.015-0.106-0.108-0.727-0.362-0.754
						c-3.826-0.446-7.664-0.403-11.484-1.021c-3.484-0.556-15.043-1.744-10.984-8.311c1.619-2.633,5.162-5.042,7.569-6.915
						c3.263-2.546,11.171-7.195,11.132-7.466c-0.631-4.229-1.077-8.454-0.987-12.728c0.038-1.844-0.754-10.081,2.345-11.361
						c3.956-2.147,15.637,10.268,20.323,15.852c0.144,0.17,0.861,0.921,1.287,0.673C94.936,75.8,110.338,69.336,111.189,69.177z"/>
				</g>
				<g>
					<g>
						<path style="fill:#222221;" d="M69.916,92.116c1.421-0.757,3.603,0.566,4.873,2.951c1.27,2.387,1.147,4.933-0.274,5.69
							c-1.421,0.757-3.602-0.564-4.873-2.951C68.373,95.421,68.495,92.872,69.916,92.116z M72.066,93.567
							c-0.263-0.494-0.877-0.683-1.371-0.42c-0.496,0.264-0.682,0.879-0.419,1.373c0.263,0.494,0.877,0.683,1.373,0.419
							C72.143,94.676,72.329,94.061,72.066,93.567z"/>
						<path style="fill:#FFFFFF;" d="M70.696,93.147c0.494-0.263,1.108-0.074,1.371,0.42c0.263,0.494,0.077,1.109-0.417,1.372
							c-0.496,0.264-1.11,0.075-1.373-0.419C70.014,94.026,70.2,93.411,70.696,93.147z"/>
					</g>
					<g>
						<path style="fill:#222221;" d="M73.22,101.547c1.377-0.439,3.327-0.039,3.163,1.774c-0.088,0.966-0.781,1.646-1.551,2.142
							c-0.888,0.573-2.06,1.267-3.146,1.328c-0.983,0.054-1.906-0.723-1.938-1.957C69.685,102.945,72.059,101.92,73.22,101.547z
							 M75.688,103.25c0.03-2.549-5.615-0.512-5.37,1.896C70.821,107.244,75.665,105.058,75.688,103.25z"/>
						<path style="fill:#FFFFFF;" d="M70.318,105.146c-0.244-2.409,5.4-4.445,5.37-1.896
							C75.665,105.058,70.821,107.244,70.318,105.146z"/>
					</g>
					<path style="fill:#222221;" d="M91.584,91.704c0.445-0.473,1.13,0.26,0.692,0.732c-1.689,1.824-3.688,3.335-5.913,4.45
						c-1.946,0.972-4.558,2.118-6.773,1.887c-0.277-0.028-0.451-0.469-0.135-0.594c0.987-0.387,2.06-0.509,3.078-0.811
						c1.163-0.342,2.29-0.792,3.372-1.342C88.054,94.931,89.937,93.46,91.584,91.704z"/>
					<g>
						<path style="fill:#222221;" d="M96.795,83.353c1.27,2.387,1.148,4.933-0.274,5.69c-1.421,0.757-3.602-0.564-4.873-2.951
							c-1.269-2.385-1.148-4.933,0.274-5.69C93.344,79.646,95.526,80.969,96.795,83.353z M93.297,83.417
							c0.496-0.264,0.682-0.879,0.419-1.373c-0.263-0.494-0.877-0.683-1.373-0.419c-0.494,0.263-0.68,0.878-0.417,1.372
							C92.189,83.491,92.803,83.68,93.297,83.417z"/>
						<path style="fill:#FFFFFF;" d="M92.343,81.626c-0.494,0.263-0.68,0.878-0.417,1.372c0.263,0.494,0.877,0.683,1.371,0.42
							c0.496-0.264,0.682-0.879,0.419-1.373C93.453,81.551,92.839,81.362,92.343,81.626z"/>
					</g>
					<g>
						<path style="fill:#222221;" d="M102.567,87.368c1.006,0.715,1.134,1.915,0.541,2.7c-0.657,0.866-1.887,1.451-2.859,1.867
							c-0.842,0.362-1.793,0.557-2.643,0.09c-1.596-0.877-0.838-2.718,0.295-3.615C98.859,87.656,101.035,86.259,102.567,87.368z
							 M102.508,88.014c-1.861-1.548-6.703,1.997-4.572,3.396C99.448,92.4,103.967,89.603,102.508,88.014z"/>
						<path style="fill:#FFFFFF;" d="M102.508,88.014c-1.861-1.548-6.703,1.997-4.572,3.396
							C99.448,92.4,103.967,89.603,102.508,88.014z"/>
					</g>
				</g>
			</g>
			<g>
				<g>
					<g>
						<path style="fill:#222221;" d="M255.863,316.789c-5.948-3.194-11.244-7.485-15.269-12.668
							c-0.878,0.299-1.756,0.612-2.608,0.971c5.509,4.764,11.377,8.869,17.611,12.195c9.241,4.95,19.274,8.177,30.126,9.295
							c-0.353-1.257-0.785-2.495-1.291-3.699c-0.046,0.08-0.12,0.146-0.24,0.16C274.671,323.781,264.572,321.473,255.863,316.789z
							 M240.986,303.995c11.517,12.328,26.167,18.935,43.206,18.476c0.027,0,0.04,0.007,0.06,0.007
							c-0.419-0.958-0.878-1.903-1.397-2.814c-1.178-2.076-2.548-3.985-4.078-5.708c-6.873-7.778-16.992-11.922-27.418-11.69
							c3.952,2.914,7.798,6.168,12.335,8.104c4.77,2.036,9.6,2.994,14.71,3.706c0.066,0.007,0.106,0.04,0.14,0.08
							c0.113,0.153,0.013,0.452-0.213,0.439c-9.667-0.479-21.39-5.263-28.203-12.282c-1.69,0.1-3.38,0.299-5.063,0.625
							C243.674,303.21,242.317,303.569,240.986,303.995z M215.245,348.697c0.565,2.908,1.504,5.742,2.941,8.41
							c3.806,7.072,10.692,12.122,18.243,14.584c8.383,2.734,18.682,3.047,27.577,0.173
							C245.61,371.584,226.861,363.088,215.245,348.697z M214.34,330.148c3.367-16.746,19.76-28.582,37.158-29.021
							c15.023-0.379,28.981,8.41,34.51,22.494c5.336,13.586,0.978,32.827-9.767,42.813c-5.908,5.495-14.072,7.545-21.922,8.177
							c-8.383,0.672-17.059-0.539-24.484-4.644c-6.254-3.453-11.377-8.809-13.992-15.502
							C212.876,346.854,212.55,339.044,214.34,330.148z M214.533,341.818c7.072,7.944,14.763,14.657,24.477,19.288
							c10.159,4.844,22.009,6.906,33.213,6.84c2.861-1.896,5.383-4.271,7.365-7.185c6.44-9.481,9.261-22.355,6.307-33.579
							c-0.04,0.013-0.08,0.02-0.126,0.013c-17.664-1.73-35.535-9.255-48.142-21.956c-10.412,4.484-18.809,14.052-22.102,24.83
							C214.387,333.788,214.453,337.873,214.533,341.818z M214.566,342.816c0.066,1.71,0.246,3.406,0.532,5.083
							c13.074,14.424,30.611,23.04,50.238,23.266c0.133,0,0.22,0.06,0.279,0.146c2.029-0.765,3.972-1.703,5.788-2.828
							c-0.06,0.013-0.12,0.027-0.166,0.033C250.487,369.908,226.994,359.855,214.566,342.816z"/>
						<path style="fill:#FFFFFF;" d="M255.863,316.789l-0.266,0.499c-6.234-3.326-12.102-7.432-17.611-12.195
							c0.852-0.359,1.73-0.672,2.608-0.971C244.619,309.304,249.915,313.595,255.863,316.789z"/>
						<path style="fill:#FFFFFF;" d="M285.895,327.181c2.954,11.224,0.133,24.098-6.307,33.579
							c-1.983,2.914-4.504,5.289-7.365,7.185c-11.204,0.066-23.053-1.996-33.213-6.84c-9.714-4.631-17.405-11.344-24.477-19.288
							c-0.08-3.945-0.146-8.03,0.991-11.749c3.293-10.778,11.69-20.345,22.102-24.83c12.608,12.701,30.478,20.226,48.142,21.956
							C285.815,327.201,285.855,327.194,285.895,327.181z"/>
						<path style="fill:#FFFFFF;" d="M284.431,322.883c0.506,1.204,0.938,2.442,1.291,3.699
							c-10.851-1.118-20.884-4.345-30.126-9.295l0.266-0.499c8.709,4.684,18.809,6.993,28.329,6.254
							C284.312,323.029,284.385,322.963,284.431,322.883z"/>
						<path style="fill:#FFFFFF;" d="M284.252,322.477c-0.02,0-0.033-0.007-0.06-0.007c-17.039,0.459-31.689-6.148-43.206-18.476
							c1.331-0.426,2.688-0.785,4.078-1.058c1.683-0.326,3.373-0.526,5.063-0.625c6.813,7.019,18.536,11.803,28.203,12.282
							c0.226,0.013,0.326-0.286,0.213-0.439l0.233-0.2c1.53,1.723,2.901,3.633,4.078,5.708
							C283.373,320.574,283.833,321.519,284.252,322.477z"/>
						<path style="fill:#FFFFFF;" d="M278.776,313.954l-0.233,0.2c-0.033-0.04-0.073-0.073-0.14-0.08
							c-5.11-0.712-9.94-1.67-14.71-3.706c-4.538-1.936-8.383-5.189-12.335-8.104C261.784,302.032,271.903,306.177,278.776,313.954z
							"/>
						<path style="fill:#FFFFFF;" d="M271.238,368.517c0.046-0.007,0.106-0.02,0.166-0.033c-1.816,1.124-3.759,2.063-5.788,2.828
							c-0.06-0.087-0.146-0.146-0.279-0.146c-19.627-0.226-37.165-8.842-50.238-23.266c-0.286-1.677-0.466-3.373-0.532-5.083
							C226.994,359.855,250.487,369.908,271.238,368.517z"/>
						<path style="fill:#FFFFFF;" d="M264.006,371.864c-8.895,2.874-19.194,2.561-27.577-0.173
							c-7.551-2.462-14.437-7.511-18.243-14.584c-1.437-2.668-2.375-5.502-2.941-8.41
							C226.861,363.088,245.61,371.584,264.006,371.864z"/>
					</g>
					<g>
						<path style="fill:#222221;" d="M306.484,343.315c2.701,4.724-0.705,10.213-5.09,12.395
							c-5.675,2.814-13.067,2.009-19.174,1.683c-7.012-0.386-14.012-1.291-20.891-2.708c-14.091-2.894-27.77-7.924-40.358-14.883
							c-5.882-3.253-11.736-6.826-16.773-11.31c-3.772-3.353-9.627-8.962-8.915-14.59c0.579-4.651,5.309-7.019,9.514-7.372
							c7.079-0.599,14.89,1.603,21.53,3.792c0.346,0.113,0.346,0.512,0.146,0.705c0.067,0.113,0.073,0.253-0.053,0.366
							c-0.645,0.605-1.257,1.251-1.803,1.943c-0.373,0.466-0.712,1.191-1.178,1.623l-0.419-0.372
							c0.213-0.599,0.759-1.184,1.098-1.63c0.532-0.685,1.118-1.317,1.743-1.916c-6.447-1.83-13.785-3.859-20.512-3.406
							c-3.852,0.259-8.35,2.069-8.882,6.44c-0.466,3.806,2.681,7.551,5.063,10.199c7.259,8.057,17.571,13.652,27.238,18.29
							c10.439,5.01,21.516,8.702,32.86,11.018c10.811,2.209,23.133,4.072,34.164,2.502c3.513-0.499,7.139-1.79,9.135-4.923
							c1.976-3.1,1.623-6.46-0.878-9.115c-3.965-4.205-10.053-6.966-15.475-8.716c0,1.557,0.007,3.114-0.02,4.677l-0.526,0.007
							c-0.027-1.637-0.02-3.273-0.02-4.91c-0.333-0.26-0.22-0.812,0.14-0.945c0.02-0.02,0.053-0.027,0.08-0.033
							c0.013,0,0.02-0.007,0.033-0.007c0.047,0,0.093,0,0.133,0.013c0.033,0.007,0.06,0,0.087,0.013
							c3.706,1.164,7.252,2.708,10.565,4.75C301.7,338.532,304.894,340.534,306.484,343.315z"/>
						<path style="fill:#FFFFFF;" d="M304.049,342.045c2.502,2.655,2.854,6.014,0.878,9.115c-1.996,3.134-5.622,4.424-9.135,4.923
							c-11.031,1.57-23.353-0.293-34.164-2.502c-11.344-2.315-22.421-6.008-32.86-11.018c-9.667-4.637-19.979-10.233-27.238-18.29
							c-2.382-2.648-5.529-6.394-5.063-10.199c0.532-4.371,5.03-6.181,8.882-6.44c6.726-0.452,14.065,1.577,20.512,3.406
							c-0.625,0.599-1.211,1.231-1.743,1.916c-0.339,0.446-0.885,1.031-1.098,1.63c-3.094-1.311-6.893-2.302-9.907-0.28
							c-2.136,1.437-2.934,3.925-1.816,6.274c1.61,3.38,5.975,5.489,9.008,7.298c4.498,2.681,9.201,5.003,14.018,7.052
							c9.215,3.925,18.815,6.853,28.476,9.454c5.256,1.417,10.525,2.814,15.828,4.039c4.325,0.998,9.727,2.561,14.198,1.883
							c2.901-0.439,4.325-2.821,3.826-5.635c-0.699-3.939-4.75-5.509-8.097-6.667c0.027-1.564,0.02-3.12,0.02-4.677
							C293.996,335.079,300.083,337.84,304.049,342.045z"/>
						<path style="fill:#222221;" d="M296.65,344.673c0.499,2.814-0.925,5.196-3.826,5.635c-4.471,0.679-9.873-0.885-14.198-1.883
							c-5.302-1.224-10.572-2.621-15.828-4.039c-9.66-2.601-19.261-5.529-28.476-9.454c-4.817-2.049-9.521-4.371-14.018-7.052
							c-3.034-1.81-7.398-3.919-9.008-7.298c-1.118-2.349-0.319-4.837,1.816-6.274c3.014-2.022,6.813-1.031,9.907,0.28l0.419,0.372
							c-0.067,0.06-0.133,0.12-0.206,0.166c-0.087,0.16-0.266,0.286-0.466,0.233c-2.768-0.685-6.048-1.976-8.729-0.319
							c-3.832,2.362-1.384,6.181,1.251,8.197c3.287,2.508,7.013,4.571,10.672,6.493c7.884,4.138,16.24,7.312,24.73,9.973
							c8.277,2.601,16.693,4.784,25.123,6.866c4.863,1.204,9.953,2.508,14.99,2.635c1.783,0.047,2.561,0.027,3.845-1.377
							c1.617-1.763,1.437-3.48,0.033-5.362c-1.484-1.976-3.952-2.828-6.207-3.619c-0.14,0.14-0.432,0.08-0.439-0.173
							c0-0.027,0-0.06,0-0.087c-0.08-0.133-0.073-0.299-0.007-0.432c0-0.047,0-0.093,0-0.14l0.526-0.007
							C291.9,339.164,295.952,340.734,296.65,344.673z"/>
					</g>
				</g>
				<g>
					<g>
						<path style="fill:#222221;" d="M235.824,316.469c1.404,0.492,1.871,2.803,1.045,5.158c-0.827,2.357-2.634,3.868-4.038,3.375
							c-1.404-0.492-1.872-2.801-1.045-5.158C232.612,317.489,234.42,315.976,235.824,316.469z M236.183,318.839
							c0.171-0.488-0.084-1.023-0.572-1.194c-0.49-0.172-1.024,0.087-1.195,0.574c-0.171,0.488,0.084,1.023,0.575,1.195
							C235.478,319.585,236.012,319.326,236.183,318.839z"/>
						<path style="fill:#FFFFFF;" d="M235.611,317.644c0.488,0.171,0.743,0.707,0.572,1.194c-0.171,0.488-0.705,0.746-1.193,0.575
							c-0.49-0.172-0.746-0.707-0.575-1.195C234.587,317.731,235.121,317.472,235.611,317.644z"/>
					</g>
					<g>
						<path style="fill:#222221;" d="M231.482,324.617c1.16,0.661,2.109,2.237,0.774,3.26c-0.712,0.545-1.607,0.5-2.427,0.287
							c-0.945-0.244-2.151-0.607-2.872-1.306c-0.652-0.635-0.702-1.748,0.117-2.542C228.32,323.09,230.502,324.062,231.482,324.617z
							 M231.87,327.361c1.751-1.575-3.166-4.137-4.65-2.463C226.109,326.553,230.627,328.477,231.87,327.361z"/>
						<path style="fill:#FFFFFF;" d="M227.22,324.898c1.484-1.674,6.401,0.888,4.65,2.463
							C230.627,328.477,226.109,326.553,227.22,324.898z"/>
					</g>
					<path style="fill:#222221;" d="M249.666,330.936c0.601,0.006,0.53,0.931-0.064,0.929c-2.297-0.006-4.575-0.419-6.725-1.233
						c-1.879-0.714-4.292-1.772-5.522-3.421c-0.154-0.206,0.036-0.6,0.319-0.463c0.881,0.428,1.635,1.082,2.478,1.584
						c0.961,0.576,1.972,1.06,3.022,1.451C245.264,330.558,247.442,330.916,249.666,330.936z"/>
					<g>
						<path style="fill:#222221;" d="M258.603,329.251c-0.827,2.357-2.634,3.868-4.038,3.375s-1.872-2.801-1.045-5.158
							c0.826-2.355,2.634-3.868,4.038-3.375C258.962,324.585,259.43,326.896,258.603,329.251z M256.37,326.913
							c0.49,0.172,1.024-0.087,1.195-0.574c0.171-0.488-0.084-1.023-0.574-1.195c-0.488-0.171-1.022,0.087-1.193,0.575
							C255.627,326.207,255.882,326.742,256.37,326.913z"/>
						<path style="fill:#FFFFFF;" d="M256.991,325.144c-0.488-0.171-1.022,0.087-1.193,0.575c-0.171,0.488,0.084,1.023,0.572,1.194
							c0.49,0.172,1.024-0.087,1.195-0.574C257.736,325.851,257.481,325.316,256.991,325.144z"/>
					</g>
					<g>
						<path style="fill:#222221;" d="M259.488,335.686c0.144,1.131-0.591,1.969-1.497,2.058c-1,0.095-2.167-0.374-3.058-0.774
							c-0.773-0.346-1.5-0.87-1.716-1.74c-0.403-1.633,1.322-2.271,2.641-2.062C256.971,333.347,259.282,333.951,259.488,335.686z
							 M259.012,336.05c-0.113-2.234-5.553-3.305-5.17-0.982C254.116,336.716,258.845,338.036,259.012,336.05z"/>
						<path style="fill:#FFFFFF;" d="M259.012,336.05c-0.113-2.234-5.553-3.305-5.17-0.982
							C254.116,336.716,258.845,338.036,259.012,336.05z"/>
					</g>
				</g>
			</g>
			<g>
				<g>
					<path style="fill:#222221;" d="M126.739,412.498c0.486,0.007,0.699,0.492,0.512,0.898
						c-5.243,11.616-17.092,18.868-29.567,20.166c-23.898,2.475-45.727-17.937-45.814-41.702
						c-0.04-12.069,4.963-24.104,13.978-32.201c10.053-9.035,23.745-14.025,36.726-14.81c1.297-0.08,0.672,1.317,0.26,1.683
						c-12.515,11.084-26.586,27.052-18.063,44.816C92.375,407.202,110.478,412.245,126.739,412.498z M101.204,431.826
						c10.452-2.102,19.866-8.516,24.59-18.156c-16.713-0.453-35.155-6.074-42.461-22.608c-7.984-18.083,5.948-34.104,18.662-45.375
						c0.033-0.027,0.066-0.033,0.093-0.053c-13.3,2.601-27.092,6.513-36.958,16.34c-17.285,17.219-15.435,46.459,3.54,61.529
						C77.778,430.734,89.72,434.141,101.204,431.826z"/>
					<path style="fill:#FFFFFF;" d="M125.794,413.669c-4.724,9.64-14.138,16.054-24.59,18.156
						c-11.483,2.315-23.426-1.091-32.534-8.323c-18.975-15.07-20.825-44.31-3.54-61.529c9.867-9.827,23.659-13.739,36.958-16.34
						c-0.027,0.02-0.06,0.027-0.093,0.053c-12.714,11.271-26.646,27.291-18.662,45.375
						C90.639,407.595,109.081,413.216,125.794,413.669z"/>
				</g>
				<g>
					<g>
						<path style="fill:#222221;" d="M95.195,421.252c0.51-0.173,0.725,0.628,0.221,0.803c-0.818,0.285-1.656,0.504-2.503,0.662
							c0.291,2.25-0.753,5.053-3.429,4.848c-2.292-0.175-3.682-2.716-2.824-4.775c-1.094-0.173-2.168-0.479-2.997-1.037
							c-0.192-0.131-0.148-0.519,0.133-0.487c0.873,0.101,1.706,0.428,2.569,0.605c0.985,0.2,1.984,0.31,2.99,0.329
							C91.354,422.237,93.307,421.893,95.195,421.252z M89.76,427.005c2.396-0.023,2.467-2.425,2.653-4.197
							c-0.888,0.139-1.786,0.205-2.689,0.2c-0.15,0.835-0.057,1.582,0.063,2.41c0.019,0.129-0.152,0.226-0.224,0.095
							c-0.413-0.753-0.449-1.674-0.293-2.508c-0.688-0.019-1.449-0.059-2.214-0.158C86.74,424.757,87.44,427.029,89.76,427.005z"/>
						<path style="fill:#FFFFFF;" d="M92.413,422.809c-0.186,1.772-0.257,4.173-2.653,4.197c-2.32,0.023-3.02-2.248-2.704-4.157
							c0.766,0.099,1.527,0.139,2.214,0.158c-0.156,0.833-0.12,1.755,0.293,2.508c0.072,0.131,0.243,0.034,0.224-0.095
							c-0.12-0.829-0.213-1.575-0.063-2.41C90.627,423.013,91.525,422.948,92.413,422.809z"/>
					</g>
					<path style="fill:#222221;" d="M82.97,416.351c0.063,0.567-0.831,0.565-0.89,0c-0.205-1.927-1.493-3.847-3.604-3.874
						c-1.057-0.013-1.972,0.47-2.516,1.385c-0.479,0.801-0.504,1.717-0.77,2.583c-0.118,0.378-0.662,0.295-0.679-0.093
						c-0.097-2.431,1.512-4.842,4.114-4.732C81.176,411.729,82.707,414.015,82.97,416.351z"/>
					<g>
						<path style="fill:#222221;" d="M77.921,419.514c1.179,0.215,2.45,1.267,1.624,2.531c-0.441,0.673-1.213,0.9-1.97,0.964
							c-0.873,0.074-2.001,0.124-2.82-0.253c-0.74-0.344-1.113-1.272-0.656-2.187C74.789,419.16,76.925,419.335,77.921,419.514z
							 M79.064,421.723c1.014-1.854-3.91-2.562-4.669-0.704C73.945,422.75,78.343,423.036,79.064,421.723z"/>
						<path style="fill:#FFFFFF;" d="M74.395,421.018c0.759-1.858,5.683-1.149,4.669,0.704
							C78.343,423.036,73.945,422.75,74.395,421.018z"/>
					</g>
					<path style="fill:#222221;" d="M96.051,416.351c-0.063,0.567,0.831,0.565,0.89,0c0.204-1.927,1.493-3.847,3.604-3.874
						c1.057-0.013,1.972,0.47,2.516,1.385c0.479,0.801,0.504,1.717,0.77,2.583c0.118,0.378,0.662,0.295,0.679-0.093
						c0.097-2.431-1.512-4.842-4.114-4.732C97.846,411.729,96.315,414.015,96.051,416.351z"/>
					<g>
						<path style="fill:#222221;" d="M104.922,420.569c0.458,0.915,0.084,1.843-0.656,2.187c-0.818,0.378-1.947,0.327-2.82,0.253
							c-0.757-0.063-1.529-0.291-1.97-0.964c-0.827-1.263,0.445-2.315,1.624-2.531C102.096,419.335,104.233,419.16,104.922,420.569z
							 M104.627,421.018c-0.759-1.858-5.684-1.149-4.669,0.704C100.679,423.036,105.076,422.75,104.627,421.018z"/>
						<path style="fill:#FFFFFF;" d="M104.627,421.018c-0.759-1.858-5.684-1.149-4.669,0.704
							C100.679,423.036,105.076,422.75,104.627,421.018z"/>
					</g>
				</g>
			</g>
			<g>
				<g>
					<g>
						<path style="fill:#222221;" d="M447.131,388.054c3.766,3.214,4.424,8.988,2.595,13.38
							c-4.491,10.772-18.629,13.519-28.895,14.411c-15.282,1.324-30.837,0.845-46.06-0.858c-6.52-0.732-13.473-1.251-19.654-3.586
							c-4.172-1.577-9.288-4.637-9.68-9.581c-0.845-10.492,13.14-16.314,20.319-9.261c-9.887-16.759-1.244-39.194,18.15-43.479
							c18.157-4.012,35.029,11.078,33.386,29.334c3.666-3.732,8.969-7.738,14.111-4.451c5.07,3.253,3.04,9.594,0.752,14.111
							C436.925,385.898,442.78,384.328,447.131,388.054z M440.93,409.184c5.342-3.2,9.993-8.948,8.243-15.535
							c-2.368-8.915-11.843-6.893-18.09-3.752c-0.519,0.26-1.111-0.273-0.812-0.812c2.329-4.132,6.101-12.608-0.905-14.803
							c-5.11-1.603-9.354,2.821-12.448,6.207c-0.426,0.466-1.045-0.047-0.965-0.565c1.377-8.855-2.069-17.977-8.709-23.958
							c-6.507-5.862-15.535-7.665-23.945-5.542c-18.33,4.631-25.921,26.074-16.427,41.935c0.339,0.566-1.184,1.025-1.417,0.818
							c-6.161-5.482-15.974-2.435-18.469,5.356c-2.681,8.363,7.904,12.082,14.151,13.36c13.366,2.728,27.451,3.433,41.063,3.453
							C414.776,415.359,429.773,415.884,440.93,409.184z"/>
						<path style="fill:#FFFFFF;" d="M449.173,393.649c1.75,6.587-2.901,12.335-8.243,15.535c-11.157,6.7-26.154,6.174-38.728,6.161
							c-13.612-0.02-27.697-0.725-41.063-3.453c-6.247-1.277-16.833-4.997-14.151-13.36c2.495-7.791,12.308-10.838,18.469-5.356
							c0.233,0.206,1.757-0.253,1.417-0.818c-9.494-15.861-1.903-37.304,16.427-41.935c8.41-2.122,17.438-0.319,23.945,5.542
							c6.64,5.981,10.086,15.103,8.709,23.958c-0.08,0.519,0.539,1.031,0.965,0.565c3.094-3.386,7.339-7.811,12.448-6.207
							c7.006,2.196,3.233,10.672,0.905,14.803c-0.299,0.539,0.293,1.071,0.812,0.812
							C437.331,386.757,446.805,384.734,449.173,393.649z"/>
					</g>
					<g>
						<path style="fill:#222221;" d="M418.087,427.872c0.452,0.133,0.532,0.645,0.259,0.985
							c-11.743,14.338-24.71,27.597-38.781,39.666c-0.392,0.339-1.171,0.027-0.958-0.559c3.426-9.428,6.853-18.855,10.286-28.283
							c-7.199-0.745-14.397-1.49-21.596-2.229c-0.459-0.047-0.665-0.439-0.492-0.852c4.724-10.958,14.145-33.213,14.331-33.219
							c6.387-0.12,11.424,0.393,16.906,0.765c5.635,0.393,14.165,0.978,17.764,1.497c-3.872,6.54-8.257,13.592-12.794,19.687
							C408.134,425.59,413.137,426.429,418.087,427.872z M416.896,428.764c-4.917-1.357-9.9-2.129-15.016-2.295
							c-0.399-0.013-0.798-0.512-0.512-0.898c4.617-6.141,8.889-12.508,12.827-19.101c-5.602-0.373-11.204-0.845-16.806-1.251
							c-5.023-0.373-9.674-0.519-15.429-1.291c-0.007,0.007,0,0.013-0.007,0.02c-4.305,10.938-9.188,21.67-13.839,32.461
							c7.186,0.738,14.378,1.47,21.563,2.209c0.339,0.033,0.692,0.346,0.552,0.725c-3.253,8.962-6.507,17.917-9.767,26.879
							C393.63,454.764,405.805,442.243,416.896,428.764z"/>
						<path style="fill:#FFFFFF;" d="M401.88,426.469c5.116,0.166,10.1,0.938,15.016,2.295
							c-11.091,13.479-23.266,26.001-36.433,37.457c3.26-8.962,6.514-17.917,9.767-26.879c0.14-0.379-0.213-0.692-0.552-0.725
							c-7.185-0.738-14.378-1.47-21.563-2.209c4.651-10.791,9.534-21.523,13.839-32.461c0.007-0.007,0-0.013,0.007-0.02
							c5.755,0.772,10.406,0.918,15.429,1.291c5.602,0.406,11.204,0.878,16.806,1.251c-3.939,6.593-8.21,12.96-12.827,19.101
							C401.082,425.956,401.481,426.455,401.88,426.469z"/>
					</g>
				</g>
				<g>
					<g>
						<path style="fill:#222221;" d="M404.621,395.53c0.277-0.346,0.793,0.099,0.593,0.46c-0.68,1.218-1.587,2.296-2.679,3.097
							c-0.027,0.161-0.193,0.306-0.368,0.257h-0.003c-0.989,0.64-2.116,1.06-3.361,1.166c-2.516,0.22-6.112-0.939-7.617-3.092
							c-0.25-0.356,0.217-0.675,0.534-0.534c1.073,0.474,1.962,1.335,3.045,1.834c1.065,0.489,2.237,0.783,3.416,0.783
							c-1.297-1.431-1.676-3.809,0.106-5.074c1.893-1.344,4.545,0.064,5.902,1.626C404.337,395.881,404.481,395.705,404.621,395.53z
							 M401.767,398.35c0.704-0.482,1.339-1.08,1.928-1.728c-0.984-1.221-2.901-2.383-4.508-1.819
							c-2.249,0.788-1.273,3.336-0.22,4.651c0.788-0.096,1.505-0.351,2.165-0.712c-0.685-0.615-1.191-1.55-1.26-2.345
							c-0.017-0.176,0.247-0.235,0.326-0.089c0.284,0.524,0.534,1.05,0.937,1.498C401.327,398.019,401.545,398.189,401.767,398.35z"
							/>
						<path style="fill:#FFFFFF;" d="M403.695,396.622c-0.588,0.647-1.223,1.246-1.928,1.728c-0.222-0.161-0.44-0.331-0.633-0.544
							c-0.403-0.447-0.652-0.974-0.937-1.498c-0.079-0.146-0.344-0.087-0.326,0.089c0.069,0.796,0.576,1.73,1.26,2.345
							c-0.66,0.361-1.377,0.615-2.165,0.712c-1.053-1.315-2.029-3.863,0.22-4.651C400.793,394.24,402.711,395.401,403.695,396.622z"
							/>
					</g>
					<path style="fill:#222221;" d="M393.535,391.163c0.415,0.245,0.255,0.949-0.252,0.929c-1.639-0.059-3.277-0.143-4.918-0.143
						c-1.626-0.002-3.28,0.176-4.898,0.017c-0.24-0.025-0.284-0.331-0.057-0.415c2.382-0.867,5.234-0.739,7.874-0.576
						c-2.289-1.349-4.614-2.63-7.004-3.804c-0.477-0.235-0.059-0.942,0.418-0.712C387.704,387.91,390.665,389.455,393.535,391.163z"
						/>
					<g>
						<path style="fill:#222221;" d="M385.184,395.048c1.382,0.252,2.872,1.485,1.903,2.966c-0.517,0.788-1.421,1.055-2.308,1.129
							c-1.023,0.086-2.345,0.146-3.304-0.297c-0.867-0.403-1.305-1.49-0.769-2.563C381.514,394.633,384.018,394.838,385.184,395.048
							z M386.524,397.635c1.189-2.172-4.582-3.003-5.472-0.825C380.525,398.839,385.678,399.175,386.524,397.635z"/>
						<path style="fill:#FFFFFF;" d="M381.052,396.81c0.89-2.177,6.661-1.347,5.472,0.825
							C385.678,399.175,380.525,398.839,381.052,396.81z"/>
					</g>
					<path style="fill:#222221;" d="M402.574,391.163c-0.415,0.245-0.255,0.949,0.252,0.929c1.639-0.059,3.277-0.143,4.918-0.143
						c1.626-0.002,3.28,0.176,4.899,0.017c0.24-0.025,0.284-0.331,0.057-0.415c-2.382-0.867-5.235-0.739-7.874-0.576
						c2.289-1.349,4.614-2.63,7.004-3.804c0.477-0.235,0.059-0.942-0.418-0.712C408.404,387.91,405.444,389.455,402.574,391.163z"/>
					<g>
						<path style="fill:#222221;" d="M415.403,396.283c0.536,1.073,0.099,2.16-0.769,2.563c-0.959,0.442-2.281,0.383-3.304,0.297
							c-0.887-0.074-1.792-0.341-2.308-1.129c-0.969-1.48,0.522-2.714,1.903-2.966C412.091,394.838,414.595,394.633,415.403,396.283
							z M415.057,396.81c-0.89-2.177-6.661-1.347-5.472,0.825C410.43,399.175,415.583,398.839,415.057,396.81z"/>
						<path style="fill:#FFFFFF;" d="M415.057,396.81c-0.89-2.177-6.661-1.347-5.472,0.825
							C410.43,399.175,415.583,398.839,415.057,396.81z"/>
					</g>
				</g>
			</g>
			<g>
				<g>
					<path style="fill:#222221;" d="M467.25,79.25c0.333-0.02,0.393,0.499,0.08,0.572c-5.828,1.351-11.058,2.781-16.407,5.589
						c-0.266,0.14-0.499-0.246-0.24-0.412C455.567,81.964,461.475,79.596,467.25,79.25z"/>
					<path style="fill:#222221;" d="M461.442,149.408c0.386,0.279,0.013,0.925-0.373,0.639c-5.469-3.985-10.911-8.01-16.314-12.082
						c-0.233-0.18-0.013-0.579,0.233-0.406C450.504,141.464,455.986,145.416,461.442,149.408z"/>
					<path style="fill:#222221;" d="M459.925,115.144c0.22,0.1,0.106,0.466-0.126,0.452c-2.089-0.093-4.338-1.018-6.354-1.557
						c-0.273-0.067-0.153-0.466,0.113-0.406C455.6,114.072,458.016,114.279,459.925,115.144z"/>
					<path style="fill:#222221;" d="M444.942,81.465c10.166,19.494,7.498,44.696-6.254,61.795
						c-13.932,17.318-34.177,24.83-59.819,18.216c-29.487-7.605-42.294-33.02-39.547-59.087c2.522-23.938,19.075-44.21,42.933-49.34
						C406.227,47.893,433.472,59.463,444.942,81.465z M441.822,136.919c11.29-18.596,11.124-43.698-1.943-61.382
						c-14.364-19.454-41.995-27.551-64.602-19.221c-22.78,8.396-36.087,31.217-35.082,55.108
						c0.971,23.146,16.347,43.751,39.141,49.1C404.597,166.453,429.187,157.737,441.822,136.919z"/>
					<path style="fill:#222221;" d="M443.139,62.464c0.366-0.166,0.692,0.366,0.319,0.552c-2.202,1.111-4.152,2.455-5.968,4.125
						c-0.2,0.186-0.479-0.093-0.299-0.299C438.821,64.992,440.884,63.475,443.139,62.464z"/>
					<path style="fill:#FFFFFF;" d="M439.879,75.537c13.067,17.684,13.233,42.787,1.943,61.382
						c-12.634,20.818-37.225,29.534-62.487,23.605c-22.794-5.349-38.169-25.954-39.141-49.1
						c-1.005-23.892,12.302-46.712,35.082-55.108C397.884,47.986,425.515,56.083,439.879,75.537z"/>
					<path style="fill:#222221;" d="M432.647,162.721c0.24,0.366-0.359,0.719-0.592,0.346c-1.138-1.863-2.269-3.719-3.406-5.582
						c-0.146-0.246,0.226-0.459,0.379-0.22C430.239,159.081,431.443,160.898,432.647,162.721z"/>
					<path style="fill:#222221;" d="M428.023,35.418c0.146-0.319,0.599-0.04,0.466,0.273c-2.462,5.821-5.123,11.583-7.824,17.298
						c-0.086,0.173-0.393,0.046-0.319-0.133C422.8,47.008,425.322,41.16,428.023,35.418z"/>
					<path style="fill:#222221;" d="M411.21,185.361c0.033,0.319-0.459,0.366-0.539,0.073c-1.763-6.354-2.468-13.552-2.668-20.126
						c-0.007-0.193,0.306-0.239,0.339-0.047C409.301,171.928,410.525,178.668,411.21,185.361z"/>
					<path style="fill:#222221;" d="M401.929,42.677c0.1,2.063-0.313,4.231-0.532,6.281c-0.027,0.24-0.393,0.246-0.379,0
						c0.106-2.076,0.047-4.298,0.472-6.34C401.543,42.364,401.916,42.438,401.929,42.677z"/>
					<path style="fill:#222221;" d="M387.445,167.631c0.047-0.18,0.339-0.14,0.319,0.04c-0.22,2.788-0.725,5.569-1.171,8.323
						c-0.066,0.426-0.719,0.246-0.645-0.18C386.387,173.086,386.78,170.312,387.445,167.631z"/>
					<path style="fill:#222221;" d="M378.869,48.991c0.033,0.253-0.393,0.306-0.446,0.06c-0.991-5.016-2.349-9.96-3.34-14.97
						c-0.066-0.346,0.406-0.472,0.526-0.14C377.319,38.718,378.204,43.974,378.869,48.991z"/>
					<path style="fill:#222221;" d="M364.512,161.656c0.12-0.186,0.459-0.067,0.373,0.16c-1.284,3.446-2.894,7.325-4.963,10.366
						c-0.246,0.359-0.892,0.14-0.732-0.313C360.38,168.382,362.522,164.75,364.512,161.656z"/>
					<path style="fill:#222221;" d="M358.504,60.727c0.066,0.166-0.18,0.246-0.273,0.12c-1.344-1.956-2.701-4.132-3.566-6.347
						c-0.106-0.286,0.306-0.399,0.459-0.193C356.515,56.23,357.599,58.552,358.504,60.727z"/>
					<path style="fill:#222221;" d="M346.981,143.932c0.246-0.093,0.346,0.266,0.166,0.399c-0.712,0.512-1.47,0.951-2.229,1.384
						c-0.685,0.386-1.364,0.885-2.122,1.084c-0.293,0.08-0.539-0.306-0.306-0.519c0.619-0.566,1.464-0.885,2.202-1.271
						C345.437,144.617,346.196,144.245,346.981,143.932z"/>
					<path style="fill:#222221;" d="M342.809,80.174c0.246,0.16,0.027,0.532-0.233,0.393c-4.757-2.468-9.62-5.163-13.912-8.396
						c-0.259-0.2-0.04-0.612,0.266-0.452C333.688,74.233,338.278,77.267,342.809,80.174z"/>
					<path style="fill:#222221;" d="M336.089,101.212c0.293,0.053,0.226,0.552-0.073,0.526c-2.229-0.2-4.564,0.087-6.766-0.239
						c-0.24-0.04-0.2-0.393,0-0.452C331.346,100.387,333.967,100.806,336.089,101.212z"/>
					<path style="fill:#222221;" d="M335.55,122.715c0.333-0.046,0.492,0.446,0.146,0.526c-4.863,1.064-9.694,2.435-14.57,3.386
						c-0.326,0.066-0.439-0.373-0.14-0.492C325.591,124.358,330.674,123.407,335.55,122.715z"/>
				</g>
				<g>
					<g>
						<path style="fill:#222221;" d="M395.578,145.858c0.6-0.479,1.304,0.47,0.828,1c-1.615,1.805-3.56,3.281-5.712,4.214
							c-0.107,0.261-0.443,0.445-0.721,0.294l-0.004-0.001c-1.916,0.705-3.982,0.986-6.13,0.694
							c-4.338-0.592-9.976-3.925-11.701-8.135c-0.285-0.701,0.626-1.062,1.107-0.703c1.628,1.211,2.805,3.005,4.445,4.262
							c1.618,1.239,3.487,2.179,5.476,2.633c-1.644-2.914-1.376-7.079,2.121-8.543c3.715-1.551,7.66,1.848,9.359,5.007
							C394.959,146.342,395.273,146.101,395.578,145.858z M389.675,149.537c1.372-0.551,2.678-1.319,3.919-2.186
							c-1.196-2.444-3.996-5.141-6.928-4.801c-4.105,0.479-3.426,5.156-2.148,7.786c1.371,0.134,2.679-0.019,3.934-0.382
							c-0.924-1.298-1.424-3.071-1.237-4.443c0.039-0.308,0.508-0.307,0.586-0.026c0.281,0.994,0.503,1.976,1.013,2.886
							C389.057,148.809,389.36,149.181,389.675,149.537z"/>
						<path style="fill:#FFFFFF;" d="M393.594,147.352c-1.241,0.866-2.547,1.634-3.919,2.186c-0.315-0.357-0.617-0.728-0.861-1.165
							c-0.51-0.91-0.733-1.891-1.013-2.886c-0.077-0.281-0.547-0.282-0.586,0.026c-0.187,1.372,0.314,3.145,1.237,4.443
							c-1.254,0.362-2.563,0.515-3.934,0.382c-1.278-2.629-1.957-7.307,2.148-7.786
							C389.598,142.211,392.397,144.908,393.594,147.352z"/>
					</g>
					<g>
						<path style="fill:#222221;" d="M373.719,118.191c2.646,0.597,3.976,4.684,2.975,9.122c-1.003,4.443-3.959,7.557-6.604,6.96
							c-2.645-0.597-3.977-4.679-2.975-9.122C368.117,120.712,371.074,117.593,373.719,118.191z M374.867,122.407
							c0.208-0.919-0.367-1.835-1.287-2.043c-0.924-0.208-1.836,0.372-2.044,1.291c-0.208,0.92,0.368,1.836,1.291,2.044
							C373.747,123.907,374.66,123.326,374.867,122.407z"/>
						<path style="fill:#FFFFFF;" d="M373.58,120.364c0.919,0.208,1.495,1.124,1.287,2.043c-0.207,0.92-1.12,1.5-2.04,1.292
							c-0.924-0.208-1.499-1.124-1.291-2.044C371.744,120.736,372.656,120.156,373.58,120.364z"/>
					</g>
					<g>
						<path style="fill:#222221;" d="M364.281,133.67c2.24,0.954,4.29,3.608,2.086,5.742c-1.174,1.136-2.806,1.242-4.335,1.029
							c-1.763-0.244-4.022-0.648-5.475-1.763c-1.313-1.012-1.638-3.018-0.322-4.627C358.233,131.567,362.389,132.87,364.281,133.67z
							 M365.559,138.557c2.839-3.22-6.602-6.827-8.938-3.484C354.956,138.303,363.542,140.838,365.559,138.557z"/>
						<path style="fill:#FFFFFF;" d="M356.621,135.073c2.336-3.342,11.777,0.264,8.938,3.484
							C363.542,140.838,354.956,138.303,356.621,135.073z"/>
					</g>
					<g>
						<path style="fill:#222221;" d="M407.966,134.371c-1.003,4.443-3.959,7.557-6.604,6.96c-2.645-0.597-3.977-4.679-2.975-9.122
							c1.002-4.438,3.959-7.557,6.604-6.96C407.637,125.846,408.968,129.932,407.966,134.371z M403.431,130.606
							c0.924,0.208,1.836-0.372,2.044-1.291c0.208-0.919-0.368-1.836-1.291-2.044c-0.919-0.208-1.832,0.373-2.04,1.292
							C401.936,129.483,402.511,130.399,403.431,130.606z"/>
						<path style="fill:#FFFFFF;" d="M404.183,127.271c-0.919-0.208-1.832,0.373-2.04,1.292c-0.207,0.919,0.368,1.835,1.287,2.043
							c0.924,0.208,1.836-0.372,2.044-1.291C405.682,128.396,405.107,127.48,404.183,127.271z"/>
					</g>
					<g>
						<path style="fill:#222221;" d="M413.967,147.08c0.497,2.018-0.657,3.69-2.278,4.041c-1.79,0.382-4.004-0.223-5.701-0.76
							c-1.472-0.464-2.9-1.261-3.472-2.791c-1.073-2.873,1.918-4.39,4.35-4.289C408.919,143.371,413.23,143.98,413.967,147.08z
							 M413.181,147.839c-0.674-4.022-10.749-4.82-9.568-0.693C404.455,150.072,413.297,151.471,413.181,147.839z"/>
						<path style="fill:#FFFFFF;" d="M413.181,147.839c-0.674-4.022-10.749-4.82-9.568-0.693
							C404.455,150.072,413.297,151.471,413.181,147.839z"/>
					</g>
				</g>
			</g>
			<g>
				<g>
					<g>
						<path style="fill:#FFFFFF;" d="M251.382,151.102c-0.02,0.007-0.04,0.007-0.06,0.013c-3.546,1.617-7.099,3.24-10.632,4.903
							c-6.021-16.586-24.663-26.46-41.835-23.053c-18.423,3.666-32.088,20.166-33.905,38.562
							c-0.971,9.793,0.991,20.771,6.081,29.467c-2.315,1.324-4.584,2.721-6.76,4.251c-10.159-18.848-11.377-41.596,1.836-59.646
							c13.978-19.095,43.791-26.373,64.968-15.482C239.959,134.688,247.124,142.14,251.382,151.102z"/>
						<path style="fill:#222221;" d="M235.767,131.521c8.975,5.861,11.976,9.913,17.172,20.019
							c-2.269,1.404-29.826,14.531-29.993,14.231c-6.034-10.585-20.931-13.898-30.012-5.316c-4.132,3.899-6.34,9.321-6.021,14.99
							c0.392,6.946,2.468,10.153,5.449,16.24c-2.581,0.958-13.446,6.254-14.378,6.74c-1.856,0.965-11.317,6.633-13.932,7.997
							c-5.968-10.592-9.986-22.574-8.43-36.513c1.224-10.951,5.995-21.437,13.506-29.514c8.436-9.068,19.86-13.905,32.002-15.582
							C213.2,123.152,225.441,124.775,235.767,131.521z M251.322,151.115c0.02-0.007,0.04-0.007,0.06-0.013
							c-4.258-8.962-11.423-16.413-20.305-20.984c-21.177-10.891-50.99-3.613-64.968,15.482
							c-13.213,18.05-11.996,40.797-1.836,59.646c2.176-1.53,4.444-2.927,6.76-4.251c-5.09-8.696-7.052-19.673-6.081-29.467
							c1.816-18.396,15.482-34.896,33.905-38.562c17.172-3.406,35.814,6.467,41.835,23.053
							C244.223,154.355,247.776,152.732,251.322,151.115z M231.097,160.656c2.821-1.411,5.669-2.781,8.523-4.132
							c-3.48-9.481-11.051-16.866-20.432-20.572c-16.819-6.646-35.548,0.705-45.701,15.156c-5.269,7.518-7.824,16.566-7.724,25.715
							c0.087,8.569,2.575,16.18,6.234,23.625c1.989-1.111,3.999-2.182,6.001-3.227c0.745-0.386,1.497-0.785,2.249-1.178
							c-8.217-14.75-7.259-35.229,5.968-46.679c6.7-5.795,16.247-8.416,24.91-6.181C220.119,145.5,226.626,152.878,231.097,160.656z
							 M223.312,164.661c2.222-1.191,4.464-2.349,6.726-3.48c-4.464-7.458-10.465-14.604-19.228-16.866
							c-8.756-2.262-18.469,0.672-24.923,6.886c-6.307,6.074-9.694,14.817-9.867,23.506c-0.153,7.565,2.102,14.278,5.329,20.758
							c3.193-1.657,6.467-3.26,9.827-4.411c-5.881-10.698-8.576-23.905,2.329-32.607
							C203.06,150.822,217.458,154.089,223.312,164.661z"/>
						<path style="fill:#FFFFFF;" d="M239.619,156.524c-2.854,1.351-5.702,2.721-8.523,4.132
							c-4.471-7.778-10.978-15.156-19.973-17.471c-8.663-2.236-18.21,0.386-24.91,6.181c-13.227,11.45-14.185,31.929-5.968,46.679
							c-0.752,0.393-1.504,0.792-2.249,1.178c-2.003,1.044-4.012,2.116-6.001,3.227c-3.659-7.445-6.147-15.056-6.234-23.625
							c-0.1-9.148,2.455-18.197,7.724-25.715c10.153-14.451,28.882-21.802,45.701-15.156
							C228.568,139.658,236.14,147.043,239.619,156.524z"/>
						<path style="fill:#FFFFFF;" d="M230.039,161.181c-2.262,1.131-4.504,2.289-6.726,3.48
							c-5.855-10.572-20.252-13.839-29.806-6.214c-10.905,8.702-8.21,21.909-2.329,32.607c-3.36,1.151-6.633,2.754-9.827,4.411
							c-3.227-6.48-5.482-13.193-5.329-20.758c0.173-8.689,3.559-17.431,9.867-23.506c6.454-6.214,16.167-9.148,24.923-6.886
							C219.573,146.577,225.575,153.723,230.039,161.181z"/>
					</g>
					<g>
						<path style="fill:#222221;" d="M327.896,205.351c0.911,8.729-7.079,13.153-14.384,14.91
							c-9.78,2.362-19.973,3.546-29.953,4.737c-10.905,1.304-21.862,2.182-32.833,2.695c-22.102,1.038-44.33,0.652-66.392-1.085
							c-8.383-0.659-17.425-1.956-23.699-8.09c-5.549-5.409-6.793-12.535-3.673-19.567c2.828-6.374,8.25-13.027,15.635-13.892
							c4.518-0.526,9.408,1.43,11.829,5.183c-1.497-5.15-1.763-10.818,2.901-14.524c4.251-3.387,10-2.741,13.732,0.812
							c-0.945-8.263,1.949-16.387,7.265-22.794c11.503-13.879,32.707-16.68,49.36-12.435c8.35,2.129,15.495,6.986,19.121,14.976
							c2.555,5.629,3.287,11.863,2.848,17.99c2.502-6.766,7.771-12.814,15.801-10.552c10.672,3.001,12.694,14.697,12.302,24.324
							c1.863-1.497,4.757-1.584,6.56,0.266c1.903,1.969,1.517,4.79,0.013,6.773C320.804,194.12,327.171,198.425,327.896,205.351z
							 M325.514,211.632c4.81-8.802-4.231-17.964-13.16-14.85c-0.645,0.226-1.018-0.758-0.452-1.085
							c2.229-1.297,3.24-4.045,1.617-6.161c-1.59-2.069-4.684-1.783-5.941,0.519c-0.266,0.499-1.144,0.293-1.098-0.293
							c0.645-9.082-0.299-20.532-10.066-24.444c-9.667-3.872-16.294,5.635-16.892,13.825c-0.093,1.277-1.757,0.778-1.637,0.073
							c1.643-9.78,0.705-20.964-6.168-28.682c-7.205-8.09-19.188-9.84-29.467-9.74c-10.752,0.107-22.022,3.034-30.072,10.505
							c-7.292,6.78-11.583,16.779-9.807,26.746c0.113,0.632-0.619,0.905-0.991,0.419c-3.573-4.664-10.372-5.389-14.497-1.005
							c-4.152,4.411-2.561,10.778-0.845,15.868c0.393,1.171-0.712,1.078-0.818,0.679c-2.601-9.773-14.617-9.314-20.858-3.646
							c-6.354,5.782-10.692,15.781-5.808,23.705c4.391,7.132,12.661,9.793,20.532,10.825c8.29,1.085,16.753,1.337,25.102,1.677
							c17.225,0.712,34.49,0.659,51.708-0.333c17.139-0.985,34.237-2.894,51.15-5.901
							C313.492,219.183,322.028,217.999,325.514,211.632z"/>
						<path style="fill:#FFFFFF;" d="M312.354,196.782c8.929-3.114,17.97,6.048,13.16,14.85c-3.486,6.367-12.022,7.551-18.469,8.702
							c-16.912,3.007-34.011,4.917-51.15,5.901c-17.218,0.991-34.483,1.045-51.708,0.333c-8.35-0.339-16.813-0.592-25.102-1.677
							c-7.871-1.031-16.141-3.692-20.532-10.825c-4.883-7.924-0.546-17.924,5.808-23.705c6.241-5.669,18.256-6.128,20.858,3.646
							c0.106,0.399,1.211,0.492,0.818-0.679c-1.716-5.09-3.307-11.457,0.845-15.868c4.125-4.384,10.925-3.659,14.497,1.005
							c0.373,0.486,1.104,0.213,0.991-0.419c-1.776-9.967,2.515-19.966,9.807-26.746c8.05-7.471,19.321-10.399,30.072-10.505
							c10.279-0.1,22.262,1.65,29.467,9.74c6.873,7.718,7.811,18.902,6.168,28.682c-0.12,0.705,1.543,1.204,1.637-0.073
							c0.599-8.19,7.225-17.697,16.892-13.825c9.767,3.912,10.712,15.362,10.066,24.444c-0.047,0.586,0.832,0.792,1.098,0.293
							c1.257-2.302,4.351-2.588,5.941-0.519c1.623,2.116,0.612,4.863-1.617,6.161C311.336,196.023,311.709,197.008,312.354,196.782z
							"/>
					</g>
				</g>
				<g>
					<g>
						<path style="fill:#222221;" d="M241.07,202.442c1.881,0.189,4.013,1.683,2.873,3.774c-0.608,1.114-1.793,1.569-2.975,1.764
							c-1.363,0.226-3.131,0.449-4.465-0.042c-1.207-0.447-1.911-1.859-1.307-3.356C236.101,202.281,239.482,202.286,241.07,202.442
							z M243.146,205.769c1.361-3.043-6.471-3.535-7.43-0.518C235.228,208.031,242.178,207.926,243.146,205.769z"/>
						<path style="fill:#FFFFFF;" d="M235.716,205.252c0.959-3.017,8.791-2.525,7.43,0.518
							C242.178,207.926,235.228,208.031,235.716,205.252z"/>
					</g>
					<g>
						<path style="fill:#222221;" d="M274.857,197.685c0.413,2.353,0.754,7.599-1.397,10.438c-2.399,3.166-6.094,4.404-9.86,4.427
							c-3.786,0.024-8.054,0.063-10.437-3.343c-1.904-2.72-2.125-6.801-1.551-10.158l0.948,0.291
							c-0.071,0.773-0.13,1.546-0.151,2.312c3.43,0.906,18.381-0.176,21.591-1.839c-0.02-0.669-0.057-1.334-0.103-1.994
							L274.857,197.685z M272.871,206.565c0.854-1.754,1.116-3.674,1.141-5.608c-1.096,0.569-2.342,0.796-3.599,0.933
							c-2.419,0.261-4.858,0.39-7.285,0.579c-2.362,0.183-4.745,0.462-7.119,0.489c-1.234,0.016-2.515-0.072-3.607-0.615
							c0.011,2.249,0.423,4.428,1.91,6.371c0.116,0.154,0.244,0.291,0.368,0.424c1.51-2.764,5.042-3.706,7.963-4.067
							c3.453-0.428,7.095-0.08,9.88,2.136C272.646,207.001,272.762,206.791,272.871,206.565z M264.449,211.31
							c2.865-0.15,5.649-1.051,7.435-3.211c-4.485-3.608-13.08-3.047-16.785,1.436C257.501,211.605,261.441,211.465,264.449,211.31z
							"/>
						<path style="fill:#222221;" d="M274.857,197.685l-0.96,0.134c-5.308,0.183-17.862,1.242-21.337,1.521l-0.948-0.291
							c0.037-0.21,0.077-0.417,0.117-0.62c0.118-0.273,22.449-1.888,22.791-1.942C274.591,196.489,274.728,196.945,274.857,197.685z
							"/>
						<path style="fill:#FFFFFF;" d="M273.897,197.819c0.046,0.66,0.083,1.325,0.103,1.994c-3.21,1.663-18.161,2.744-21.591,1.839
							c0.022-0.766,0.08-1.538,0.151-2.312C256.035,199.061,268.589,198.002,273.897,197.819z"/>
						<path style="fill:#222221;" d="M274.012,200.957c-0.025,1.934-0.288,3.854-1.141,5.608c-0.109,0.226-0.225,0.435-0.349,0.642
							c-2.785-2.216-6.427-2.564-9.88-2.136c-2.921,0.361-6.453,1.303-7.963,4.067c-0.124-0.133-0.252-0.27-0.368-0.424
							c-1.488-1.943-1.9-4.122-1.91-6.371c1.092,0.543,2.373,0.63,3.607,0.615c2.374-0.027,4.758-0.306,7.119-0.489
							c2.428-0.188,4.867-0.318,7.285-0.579C271.67,201.753,272.917,201.526,274.012,200.957z"/>
						<path style="fill:#FFFFFF;" d="M271.883,208.1c-1.785,2.159-4.57,3.061-7.435,3.211c-3.008,0.155-6.948,0.295-9.35-1.775
							C258.803,205.053,267.398,204.492,271.883,208.1z"/>
					</g>
					<g>
						<path style="fill:#222221;" d="M248.063,191.679c0.81,3.636-2.67,7.056-5.607,8.507c-0.135,0.064-0.255,0.067-0.355,0.032
							c-0.03-0.004-0.061-0.012-0.089-0.023c-3.258-1.09-8.198-4.918-6.826-8.896c0.544-1.582,1.984-2.759,3.703-2.63
							c1.175,0.089,2.28,0.718,2.757,1.754c1.019-1.026,2.345-1.924,3.848-1.577C246.826,189.152,247.78,190.397,248.063,191.679z
							 M246.889,193.926c0.429-1.426,0.306-3.372-1.266-4.083c-1.431-0.653-3.215,0.522-4.045,1.366
							c-0.919-1.344-2.866-2.193-4.38-1.056c-1.363,1.021-1.458,2.784-0.77,4.207c1.117,2.313,3.41,3.724,5.616,4.855
							c0.016-0.008,0.032-0.019,0.048-0.031C244.221,198.102,246.179,196.262,246.889,193.926z"/>
						<path style="fill:#FFFFFF;" d="M245.623,189.842c1.572,0.711,1.695,2.657,1.266,4.083c-0.71,2.336-2.668,4.176-4.797,5.258
							c-0.016,0.011-0.032,0.023-0.048,0.031c-2.207-1.131-4.499-2.542-5.616-4.855c-0.688-1.423-0.593-3.186,0.77-4.207
							c1.514-1.136,3.461-0.288,4.38,1.056C242.408,190.365,244.192,189.19,245.623,189.842z"/>
					</g>
					<g>
						<path style="fill:#222221;" d="M291.039,200.095c0.835,1.381,0.366,2.888-0.755,3.521c-1.239,0.697-3.019,0.76-4.401,0.754
							c-1.198-0.004-2.441-0.264-3.219-1.267c-1.46-1.882,0.407-3.697,2.233-4.184C286.44,198.512,289.776,197.967,291.039,200.095z
							 M290.631,200.839c-1.428-2.825-9.082-1.089-7.252,1.697C284.679,204.511,291.556,203.504,290.631,200.839z"/>
						<path style="fill:#FFFFFF;" d="M290.631,200.839c-1.428-2.825-9.082-1.089-7.252,1.697
							C284.679,204.511,291.556,203.504,290.631,200.839z"/>
					</g>
					<g>
						<path style="fill:#222221;" d="M278.357,186.204c1.428-0.582,2.881,0.092,4.051,0.943c0.305-1.099,1.296-1.896,2.442-2.172
							c1.676-0.402,3.286,0.53,4.076,2.005c1.99,3.708-2.275,8.276-5.317,9.872c-0.025,0.015-0.055,0.028-0.084,0.037
							c-0.093,0.051-0.212,0.067-0.355,0.025c-3.131-0.963-7.112-3.784-6.894-7.502C276.35,188.101,277.093,186.719,278.357,186.204
							z M283.368,195.867c0.017,0.009,0.035,0.017,0.052,0.023c1.998-1.469,4.036-3.228,4.769-5.69
							c0.452-1.515,0.077-3.24-1.432-4.03c-1.676-0.88-3.463,0.268-4.155,1.742c-0.954-0.701-2.903-1.576-4.211-0.703
							c-1.439,0.953-1.249,2.894-0.598,4.233C278.867,193.635,281.094,195.138,283.368,195.867z"/>
						<path style="fill:#FFFFFF;" d="M278.391,187.209c-1.439,0.953-1.249,2.894-0.598,4.233c1.074,2.193,3.301,3.696,5.575,4.424
							c0.017,0.009,0.035,0.017,0.052,0.023c1.998-1.469,4.036-3.228,4.769-5.69c0.452-1.515,0.077-3.24-1.432-4.03
							c-1.676-0.88-3.463,0.268-4.155,1.742C281.648,187.211,279.699,186.337,278.391,187.209z"/>
					</g>
				</g>
			</g>
		</g>
	</g>
</g>
</svg>
